<?xml version="1.0" standalone="no"?>
<!DOCTYPE svg PUBLIC "-//W3C//DTD SVG 20010904//EN"
 "http://www.w3.org/TR/2001/REC-SVG-20010904/DTD/svg10.dtd">
<svg version="1.0" xmlns="http://www.w3.org/2000/svg"
 width="100.000000pt" height="100.000000pt" viewBox="0 0 100.000000 100.000000"
 preserveAspectRatio="xMidYMid meet">

<g transform="translate(0.000000,100.000000) scale(0.100000,-0.100000)"
fill="#000000" stroke="none">
<path d="M487 974 c-4 -4 -7 -203 -7 -443 l0 -435 -62 60 c-107 102 -117 109
-130 96 -10 -10 11 -35 92 -117 58 -58 112 -105 120 -105 8 0 62 47 120 105
79 79 102 107 93 116 -9 9 -26 0 -70 -39 -32 -27 -71 -64 -88 -82 l-30 -31 -5
437 c-5 418 -8 463 -33 438z"/>
</g>
</svg>
