<?xml version="1.0" standalone="no"?>
<!DOCTYPE svg PUBLIC "-//W3C//DTD SVG 20010904//EN"
 "http://www.w3.org/TR/2001/REC-SVG-20010904/DTD/svg10.dtd">
<svg version="1.0" xmlns="http://www.w3.org/2000/svg"
 width="64.000000pt" height="64.000000pt" viewBox="0 0 64.000000 64.000000"
 preserveAspectRatio="xMidYMid meet">

<g transform="translate(0.000000,64.000000) scale(0.100000,-0.100000)"
fill="#000000" stroke="none">
<path d="M265 570 c-34 -14 -73 -62 -100 -125 -15 -33 -34 -75 -42 -93 -15
-31 -14 -34 11 -66 14 -19 46 -47 71 -63 24 -15 44 -34 42 -42 -1 -8 -36 -27
-77 -41 -41 -15 -76 -32 -78 -38 -1 -5 4 -17 13 -26 24 -24 406 -24 430 0 9 9
14 21 12 27 -1 5 -36 22 -77 37 -67 25 -75 30 -75 54 1 20 -4 26 -22 26 -12 0
-25 -4 -28 -10 -11 -18 -41 -10 -66 18 -75 80 -85 161 -25 186 17 7 46 25 64
40 17 15 32 24 32 19 1 -24 18 -35 39 -24 19 11 23 9 32 -17 7 -20 19 -32 36
-35 25 -5 25 -4 20 44 -4 28 -15 63 -26 78 -35 48 -130 75 -186 51z m101 -417
c9 -32 -3 -43 -46 -43 -43 0 -55 11 -46 43 4 19 12 22 46 22 34 0 42 -3 46
-22z"/>
<path d="M430 348 c0 -52 -13 -63 -72 -63 -46 0 -53 -3 -53 -20 0 -18 6 -20
48 -18 66 4 131 41 135 77 4 32 -13 56 -39 56 -15 0 -19 -7 -19 -32z"/>
</g>
</svg>
