<?xml version="1.0" encoding="UTF-8"?>
<svg version="1.1" xmlns="http://www.w3.org/2000/svg" width="1254" height="1254">
<path d="M0 0 C413.82 0 827.64 0 1254 0 C1254 413.82 1254 827.64 1254 1254 C840.18 1254 426.36 1254 0 1254 C0 840.18 0 426.36 0 0 Z " fill="#FEFDFD" transform="translate(0,0)"/>
<path d="M0 0 C12.30527897 10.32322062 22.05234585 22.01359708 30 36 C30.44472656 36.77601563 30.88945313 37.55203125 31.34765625 38.3515625 C33.65171159 42.62934267 34.6026307 46.23156837 35 51 C35.66 51 36.32 51 37 51 C37.63980405 52.72374393 38.26071469 54.454498 38.875 56.1875 C39.22304688 57.15042969 39.57109375 58.11335938 39.9296875 59.10546875 C43.03831727 69.41663804 43.34776522 80.06111191 43.31567383 90.73803711 C43.31250796 92.93198175 43.336101 95.12457935 43.36132812 97.31835938 C43.41679383 109.69632596 41.48389333 120.88477216 36.96484375 132.5 C36.29069165 134.24679086 35.68356151 136.02026579 35.12890625 137.80859375 C25.39779457 165.31834546 2.57483345 187.79952596 -23.2956543 200.36889648 C-36.64192195 206.67271096 -36.64192195 206.67271096 -44 208 C-43.60167969 208.59167969 -43.20335937 209.18335938 -42.79296875 209.79296875 C-33 224.39902676 -33 224.39902676 -33 232 C27.39 232 87.78 232 150 232 C150.33 230.02 150.66 228.04 151 226 C155.50304835 216.9334597 162.68571778 210.74491759 172 207 C180.14185172 204.44933691 189.37419655 205.34625751 197 209 C205.42860714 213.44962001 211.81582984 219.72778046 214.9375 228.875 C217.39151176 238.64560237 216.89986063 249.48077692 211.6875 258.25 C209.97371132 260.83858828 208.46561399 262.48791767 206.125 264.625 C203.67041235 266.80721762 203.67041235 266.80721762 204.140625 269.71484375 C205.12309078 273.4705425 206.71843184 276.59267475 208.625 279.9375 C213.35273254 288.50336679 217.57264776 297.26207789 221.38623047 306.27685547 C222.93921207 309.90723004 224.63382622 313.45771256 226.36328125 317.0078125 C226.83497993 317.97882401 226.83497993 317.97882401 227.31620789 318.9694519 C228.31344604 321.0220476 229.31274705 323.07362814 230.3125 325.125 C241.76185843 348.62735389 241.76185843 348.62735389 245.625 357.8125 C247.26876849 361.62305423 249.11642831 365.30366758 251 369 C253.16394151 373.24653183 255.22168789 377.48149654 257.06640625 381.87890625 C259.38918104 387.15617282 261.98141058 392.31401438 264.5 397.5 C267.79485811 404.28438758 271.05800696 411.05340727 274 418 C274.89424151 419.94524526 275.79466363 421.88765417 276.69921875 423.828125 C277.18583984 424.87484375 277.67246094 425.9215625 278.17382812 427 C279.1910131 429.18399458 280.21190667 431.36626539 281.23632812 433.546875 C281.71908203 434.5884375 282.20183594 435.63 282.69921875 436.703125 C283.14096436 437.64833008 283.58270996 438.59353516 284.0378418 439.56738281 C285 442 285 442 285 445 C286.216875 444.896875 287.43375 444.79375 288.6875 444.6875 C292.05316068 444.40227452 292.96095492 444.97039501 295.73046875 447.0703125 C299.59350815 452.05702429 298.81551029 457.6815729 298.29980469 463.69726562 C296.99153901 473.74576874 293.68291787 484.0272559 289 493 C288.60554687 493.83144531 288.21109375 494.66289063 287.8046875 495.51953125 C283.69595349 503.72526004 278.09883133 510.23354512 272 517 C271.43796875 517.65742187 270.8759375 518.31484375 270.296875 518.9921875 C256.84875453 533.78512002 235.88908803 542.88852975 217 548 C215.31224599 548.5617374 213.62473284 549.12419916 211.9375 549.6875 C183.26592122 558.04815055 147.42231098 551.89706117 121.49194336 538.27075195 C114.08271772 534.18504166 107.34522156 529.6217477 101 524 C100.32066406 523.45085938 99.64132812 522.90171875 98.94140625 522.3359375 C82.99017102 509.21425861 70.86821189 488.60177999 68 468 C67.79008041 464.62410457 67.723889 461.25675101 67.6875 457.875 C67.65849609 456.96878906 67.62949219 456.06257813 67.59960938 455.12890625 C67.53675429 448.60164751 67.53675429 448.60164751 69.58203125 445.9453125 C72 445 72 445 75.4921875 444.8359375 C78.93932162 444.3967211 78.93932162 444.3967211 80.19628906 442.48925781 C81.31247987 440.24050976 82.23123256 437.97125181 83.125 435.625 C83.88887471 433.78204328 84.65735527 431.94099093 85.4296875 430.1015625 C85.83928711 429.11188477 86.24888672 428.12220703 86.67089844 427.10253906 C89.00879687 421.64515236 91.64307125 416.33268855 94.25 411 C98.64688805 401.933613 102.96293528 392.83542962 107.1875 383.6875 C112.31286024 372.59511498 117.51275698 361.53996354 122.75 350.5 C123.12960876 349.69962311 123.50921753 348.89924622 123.90032959 348.07461548 C125.44455511 344.8188359 126.9889715 341.56314698 128.53369141 338.30760193 C132.6335116 329.66665547 136.72633362 321.0224115 140.8125 312.375 C141.33642838 311.26626526 141.33642838 311.26626526 141.87094116 310.13513184 C148.6479949 295.78790398 155.34499201 281.40423089 162 267 C161.06051514 266.5676001 161.06051514 266.5676001 160.10205078 266.12646484 C157.45301177 264.7068753 156.47658392 263.14896209 154.875 260.625 C154.37742187 259.85414063 153.87984375 259.08328125 153.3671875 258.2890625 C150 252.65142857 150 252.65142857 150 249 C89.61 249 29.22 249 -33 249 C-33.66 251.97 -34.32 254.94 -35 258 C-37.56672847 264.07909375 -41.51274277 270.71878678 -47.12060571 274.38720876 C-49.16685538 275.82728483 -49.16685538 275.82728483 -49.50320601 278.0397231 C-49.5047249 278.82840222 -49.50624378 279.61708135 -49.50780869 280.42965984 C-49.51925627 281.34131584 -49.53070386 282.25297183 -49.54249835 283.19225377 C-49.53085772 284.69661582 -49.53085772 284.69661582 -49.51898193 286.23136902 C-49.52648319 287.29565591 -49.53398444 288.3599428 -49.541713 289.4564808 C-49.56209295 293.04043691 -49.55386704 296.62376657 -49.54589844 300.20776367 C-49.55462781 302.76975637 -49.56511135 305.3317436 -49.57722473 307.89372253 C-49.59938386 313.41857558 -49.60928395 318.94323652 -49.60811615 324.46813011 C-49.60644878 332.45617954 -49.62676249 340.44405354 -49.65247145 348.43205623 C-49.69358232 361.39146318 -49.71687292 374.35083864 -49.72900391 387.31030273 C-49.74082729 399.90050281 -49.76101412 412.49064357 -49.79248047 425.08081055 C-49.79441657 425.85664123 -49.79635267 426.63247191 -49.79834744 427.43181261 C-49.80811183 431.32385959 -49.81804097 435.21590612 -49.82805204 439.10795248 C-49.91091357 471.4052761 -49.9648744 503.70258795 -50 536 C-48.72125 535.96519531 -47.4425 535.93039062 -46.125 535.89453125 C-44.41667991 535.86637213 -42.70834548 535.83907426 -41 535.8125 C-39.74123047 535.77479492 -39.74123047 535.77479492 -38.45703125 535.73632812 C-30.15226897 535.63976112 -23.62602893 537.78376446 -17 543 C-10.89830184 548.99694798 -6.892616 554.53933042 -6.70703125 563.27734375 C-6.72675539 565.16428693 -6.76221383 567.05112387 -6.8125 568.9375 C-6.82603516 569.90751953 -6.83957031 570.87753906 -6.85351562 571.87695312 C-6.88861323 574.25189129 -6.93777725 576.62564378 -7 579 C-5.88141602 578.97381592 -4.76283203 578.94763184 -3.61035156 578.9206543 C0.59402967 578.82921873 4.79832568 578.77241654 9.00341797 578.7253418 C10.81313929 578.70040786 12.62276214 578.66644757 14.43212891 578.62280273 C25.34659703 578.36638212 34.20342399 578.5398408 44 584 C44.89960449 584.46607666 45.79920898 584.93215332 46.72607422 585.41235352 C59.92054131 592.42585867 67.93491716 604.00090099 72.64257812 617.89672852 C74.2113451 623.44574969 74.43508492 628.9465723 74.5 634.6875 C74.561875 636.07291992 74.561875 636.07291992 74.625 637.48632812 C74.6353125 638.38158203 74.645625 639.27683594 74.65625 640.19921875 C74.67494141 641.00190186 74.69363281 641.80458496 74.71289062 642.6315918 C73.83636684 645.54363196 72.38174517 647.05174846 70.02238762 648.92786765 C65.79979368 651.16639973 61.04681037 650.68226565 56.37852478 650.63491821 C55.20086298 650.64271817 54.02320118 650.65051812 52.80985266 650.65855443 C49.54908979 650.67503084 46.28925984 650.66912473 43.02852046 650.65362334 C39.50901985 650.64230369 35.9896447 650.65977544 32.47016907 650.67352295 C25.57905342 650.69575281 18.6882101 650.69095562 11.79708379 650.67645974 C6.19703685 650.66516737 0.59706624 650.66363658 -5.00298882 650.66907883 C-5.8000363 650.66984499 -6.59708378 650.67061116 -7.41828422 650.67140054 C-9.03746238 650.67299916 -10.65664052 650.67462023 -12.27581864 650.6762635 C-27.45746712 650.69052001 -42.63896462 650.67412936 -57.82058834 650.64726166 C-70.84897366 650.62491864 -83.87713627 650.62880664 -96.90551758 650.65185547 C-112.03441184 650.67860783 -127.16317384 650.68915125 -142.29208845 650.67379415 C-143.90500126 650.6722014 -145.5179141 650.67062954 -147.13082695 650.66907883 C-148.32121236 650.66792176 -148.32121236 650.66792176 -149.53564595 650.66674132 C-155.12990142 650.66242293 -160.72407302 650.66971374 -166.31831551 650.68147659 C-173.13447471 650.69549372 -179.95034599 650.69171833 -186.76647217 650.66507287 C-190.24467716 650.65192438 -193.72240196 650.64679915 -197.20060349 650.66331863 C-200.96938831 650.67692679 -204.73681104 650.65991236 -208.50550842 650.63491821 C-209.60744461 650.64607182 -210.70938079 650.65722543 -211.84470898 650.66871703 C-219.23563972 650.57325296 -219.23563972 650.57325296 -223.17896175 647.61585045 C-225.1803101 644.74099157 -225.6318233 643.36617671 -225.62890625 639.90234375 C-225.63398193 638.94166992 -225.63905762 637.98099609 -225.64428711 636.99121094 C-225.61729736 635.98348633 -225.59030762 634.97576172 -225.5625 633.9375 C-225.54517822 632.90270508 -225.52785645 631.86791016 -225.51000977 630.80175781 C-225.01000089 614.63353203 -218.38906815 602.42653703 -206.7421875 591.29296875 C-197.0618481 583.19843993 -186.42552402 578.45808799 -173.80859375 578.70703125 C-172.97787857 578.71127609 -172.14716339 578.71552094 -171.29127502 578.71989441 C-168.67300118 578.73650686 -166.05553585 578.7741237 -163.4375 578.8125 C-161.64779768 578.82756947 -159.85808313 578.84125388 -158.06835938 578.85351562 C-153.71193446 578.8863528 -149.35610365 578.93801064 -145 579 C-145.01740234 577.14773804 -145.01740234 577.14773804 -145.03515625 575.25805664 C-145.04453955 573.62125803 -145.05363917 571.98445777 -145.0625 570.34765625 C-145.07087891 569.53574829 -145.07925781 568.72384033 -145.08789062 567.8873291 C-145.12753259 558.1180615 -143.42635263 551.18396222 -136.39453125 544.05078125 C-128.3639546 537.17304431 -121.88055506 535.61317376 -111.578125 535.84765625 C-110.65467285 535.85865356 -109.7312207 535.86965088 -108.77978516 535.88098145 C-106.51944761 535.90949152 -104.25993359 535.94943573 -102 536 C-101.94442365 503.01361699 -101.93088928 470.02752665 -101.97365963 437.04113236 C-101.9786742 433.1459115 -101.98334106 429.25069029 -101.98779297 425.35546875 C-101.9886851 424.58000739 -101.98957723 423.80454604 -101.9904964 423.00558585 C-102.00410861 410.45292697 -101.98955887 397.90045092 -101.96458304 385.34781629 C-101.93957889 372.46554076 -101.94488162 359.58353416 -101.97825909 346.7012763 C-101.99789823 338.75343039 -101.99395926 330.80631672 -101.95976371 322.85851711 C-101.93606613 316.76179435 -101.95455612 310.66594018 -101.98873711 304.56923676 C-101.99615692 302.06991048 -101.98991001 299.57050057 -101.96898079 297.07125092 C-101.94243534 293.65709479 -101.9651144 290.2466434 -102 286.8326416 C-101.98058822 285.84429778 -101.96117643 284.85595395 -101.94117641 283.83766031 C-102.05772135 278.30446827 -102.88154749 275.55514155 -106.8828125 271.6198349 C-107.93299561 270.73536753 -107.93299561 270.73536753 -109.00439453 269.83303213 C-112.29974499 266.80613961 -114.06933305 262.98106518 -116 259 C-116.56074219 258.06414062 -116.56074219 258.06414062 -117.1328125 257.109375 C-118 255 -118 255 -118 249 C-178.72 249 -239.44 249 -302 249 C-303.485 253.455 -303.485 253.455 -305 258 C-306.75390625 260.84765625 -306.75390625 260.84765625 -308.5625 263.0625 C-309.16191406 263.81660156 -309.76132812 264.57070313 -310.37890625 265.34765625 C-311.18134766 266.16556641 -311.18134766 266.16556641 -312 267 C-312.66 267 -313.32 267 -314 267 C-313.24662354 268.58192139 -313.24662354 268.58192139 -312.47802734 270.19580078 C-310.10892955 275.17152439 -307.74156291 280.14807029 -305.375 285.125 C-304.94338562 286.03269135 -304.51177124 286.94038269 -304.06707764 287.87557983 C-298.54128934 299.50050023 -293.0480417 311.13930294 -287.625 322.8125 C-283.30136286 332.11906166 -278.90807155 341.38809389 -274.4375 350.625 C-269.55859326 360.70753518 -264.79433488 370.83769963 -260.09667969 381.00585938 C-257.05774933 387.57957436 -253.99791609 394.14235511 -250.90625 400.69140625 C-250.55843475 401.42885574 -250.21061951 402.16630524 -249.8522644 402.92610168 C-248.10942979 406.61968299 -246.36173585 410.31084465 -244.60595703 413.99829102 C-241.76794488 419.97619968 -238.96383302 425.93144045 -236.5234375 432.0859375 C-236.00777222 433.36476807 -236.00777222 433.36476807 -235.48168945 434.66943359 C-234.89674053 436.15254712 -234.33978724 437.64723834 -233.82104492 439.15478516 C-233.04295321 441.33945718 -233.04295321 441.33945718 -231 444 C-228.69323182 444.82973446 -226.57028253 445.23797133 -224.13647461 445.515625 C-221.52040537 446.10873223 -220.58650847 446.85579284 -219 449 C-218.66748773 451.86679499 -218.5254466 454.44723503 -218.5625 457.3125 C-218.56934814 458.11703613 -218.57619629 458.92157227 -218.58325195 459.75048828 C-218.78217536 467.27083599 -220.39186484 473.94269309 -223 481 C-223.37382812 482.02609375 -223.74765625 483.0521875 -224.1328125 484.109375 C-228.83614996 496.13247605 -235.47039689 506.34848513 -244 516 C-244.54011719 516.62390625 -245.08023438 517.2478125 -245.63671875 517.890625 C-263.90220019 537.58237829 -293.59795706 550.09972284 -320 552 C-325.02058471 552.1870959 -330.0388392 552.24418164 -335.0625 552.25 C-335.74742523 552.25133942 -336.43235046 552.25267883 -337.13803101 552.25405884 C-347.73549531 552.24956976 -357.70649355 551.63406946 -368 549 C-368.928125 548.77183594 -369.85625 548.54367187 -370.8125 548.30859375 C-387.31643805 543.79579819 -403.1687053 535.27664978 -416 524 C-417.22589844 522.98873047 -417.22589844 522.98873047 -418.4765625 521.95703125 C-437.14732014 506.08977746 -448.15055923 483.18930708 -450.2734375 458.8671875 C-450.54438602 450.88462728 -450.54438602 450.88462728 -448 446.75 C-443.97694356 444.40321708 -441.59918092 444.61023891 -437 445 C-436.88462891 444.28859863 -436.76925781 443.57719727 -436.65039062 442.84423828 C-435.95681807 439.81116012 -434.91015719 437.30954945 -433.59375 434.4921875 C-433.10156982 433.43233643 -432.60938965 432.37248535 -432.10229492 431.28051758 C-431.5735376 430.15669678 -431.04478027 429.03287598 -430.5 427.875 C-429.95899658 426.71444092 -429.41799316 425.55388184 -428.8605957 424.3581543 C-425.01698923 416.12558393 -421.14047663 407.90827278 -417.23046875 399.70703125 C-414.76857543 394.52996819 -412.35123578 389.33214154 -409.92895508 384.13647461 C-406.89376188 377.62635026 -403.85153499 371.1195465 -400.80078125 364.61669922 C-400.09208975 363.10480207 -399.38443016 361.59242086 -398.67773438 360.07958984 C-397.63664828 357.85134205 -396.592119 355.62473731 -395.546875 353.3984375 C-395.23433777 352.72759125 -394.92180054 352.056745 -394.59979248 351.36557007 C-392.91148538 347.77961768 -391.07143275 344.37692589 -389 341 C-388.34013664 339.43087611 -387.71467722 337.84682504 -387.125 336.25 C-385.50096359 332.05973812 -383.53278297 328.28493646 -381.28613281 324.40209961 C-380.04834652 322.0902964 -379.08126628 319.81176781 -378.1484375 317.36328125 C-376.04661643 312.01417617 -373.62945877 306.85790251 -371.125 301.6875 C-370.23771571 299.84011527 -369.35099531 297.9924596 -368.46484375 296.14453125 C-368.04058105 295.26104004 -367.61631836 294.37754883 -367.17919922 293.46728516 C-362.9914246 284.70503871 -359.0064825 275.84617154 -355 267 C-355.598125 266.75121094 -356.19625 266.50242187 -356.8125 266.24609375 C-363.00604467 262.71798527 -366.15850116 254.29494189 -368.3046875 247.8203125 C-370.45559163 239.09585867 -369.25128346 230.89849716 -365 223 C-359.16525599 214.96433094 -352.07359344 208.32397512 -342.1328125 206.27734375 C-330.55618818 204.77195854 -321.40783781 207.04371601 -312 214 C-307.68242194 218.05884679 -304.1534328 222.42640923 -302 228 C-302 229.32 -302 230.64 -302 232 C-241.61 232 -181.22 232 -119 232 C-118.34 229.03 -117.68 226.06 -117 223 C-115.6328125 220.109375 -115.6328125 220.109375 -114.125 217.75 C-113.5990625 216.92242187 -113.073125 216.09484375 -112.53125 215.2421875 C-110.80758538 212.71825001 -109.00222373 210.31025815 -107 208 C-107.680625 207.87625 -108.36125 207.7525 -109.0625 207.625 C-135.49031581 202.00206047 -160.89425454 182.27048177 -175.625 160.109375 C-178.19678014 156.13804808 -180.62095328 152.08898655 -183 148 C-183.86625 146.54013672 -183.86625 146.54013672 -184.75 145.05078125 C-192.91813588 130.13967903 -196.19788604 112.93422807 -196.1875 96.125 C-196.18741943 94.92439941 -196.18733887 93.72379883 -196.18725586 92.48681641 C-196.03088803 68.03088803 -196.03088803 68.03088803 -193 65 C-192.72367732 63.56732696 -192.47980329 62.12836665 -192.25 60.6875 C-187.12955176 34.64320572 -166.53318373 8.61593602 -144.95703125 -6.13671875 C-99.20393424 -34.96660947 -42.82352296 -35.17043607 0 0 Z " fill="#090808" transform="translate(702,277)"/>
<path d="M0 0 C1.90749023 -0.00483398 1.90749023 -0.00483398 3.85351562 -0.00976562 C28.64094372 0.13013264 50.3622306 9.06710838 68.9375 25.3125 C69.4732666 25.77575684 70.0090332 26.23901367 70.56103516 26.71630859 C84.8252725 39.29642654 94.31929914 55.2341309 99.9375 73.3125 C100.20167725 74.00706299 100.46585449 74.70162598 100.73803711 75.41723633 C103.58101384 83.43431285 103.44687806 91.48406271 103.375 99.875 C103.37162628 100.63294861 103.36825256 101.39089722 103.36477661 102.17181396 C103.22954305 123.08849199 98.66899777 146.27491067 83.9375 162.3125 C79.61635281 162.3125 79.43982808 162.29661266 76.5625 159.5625 C72.89658137 156.18795753 69.16827478 152.9168812 65.375 149.6875 C59.0419922 144.2686496 52.71923385 138.83821529 46.44140625 133.35546875 C44.26345507 131.45398863 42.06735761 129.58136582 39.83984375 127.73828125 C34.84477368 123.50504921 32.19055672 120.95370061 30.9375 114.3125 C26.77344435 106.75551012 20.98895558 102.22768219 12.9375 99.3125 C12.23625 99.13847656 11.535 98.96445312 10.8125 98.78515625 C4.67896582 97.15593623 1.4371946 94.27999122 -2.85546875 89.6640625 C-5.51458853 86.83080568 -8.38135391 84.33718 -11.3359375 81.8203125 C-14.73220167 78.85434425 -14.73220167 78.85434425 -16.0625 77.3125 C-16.13282838 74.14772307 -15.71328655 72.15172325 -13.75390625 69.625 C-9.41247505 65.12117113 -6.18196643 64.12974048 0.125 63.9375 C5.39089723 64.00200431 9.08244969 64.47238948 13.359375 67.6171875 C16.23304042 70.70424392 17.47718358 74.41832289 18.9375 78.3125 C20.12044263 80.87248481 20.12044263 80.87248481 21.9375 82.3125 C25.54824844 82.92709548 27.23888841 82.77211289 30.3125 80.75 C32.57401762 77.35772358 32.41457763 75.3335829 31.9375 71.3125 C29.80735198 64.80371437 26.40195716 58.51109781 20.5 54.765625 C16.40878818 52.69566664 12.19852069 50.99867931 7.9375 49.3125 C7.88851562 48.46945312 7.83953125 47.62640625 7.7890625 46.7578125 C7.67691406 45.11425781 7.67691406 45.11425781 7.5625 43.4375 C7.45808594 41.80167969 7.45808594 41.80167969 7.3515625 40.1328125 C7.20496509 37.18203526 7.20496509 37.18203526 4.9375 35.3125 C3.02743694 34.9948754 3.02743694 34.9948754 0.9375 35.0625 C0.23625 35.05734375 -0.465 35.0521875 -1.1875 35.046875 C-3.3060669 35.15544485 -3.3060669 35.15544485 -5.0625 37.3125 C-5.52646693 40.20473503 -5.52646693 40.20473503 -5.6875 43.4375 C-5.76226563 44.53320312 -5.83703125 45.62890625 -5.9140625 46.7578125 C-5.98753906 48.02238281 -5.98753906 48.02238281 -6.0625 49.3125 C-6.64257812 49.48265625 -7.22265625 49.6528125 -7.8203125 49.828125 C-16.87890099 52.63838018 -22.10713855 57.05330202 -28.0625 64.3125 C-32.31614101 63.82981733 -34.6926016 61.15734991 -37.625 58.3125 C-41.43265211 54.71396379 -45.26990891 51.26317869 -49.375 48 C-56.63058585 42.16999847 -63.31467226 35.71428529 -70.0625 29.3125 C-65.28636112 18.85957891 -48.71343084 11.13566248 -38.51953125 6.80859375 C-25.66766004 2.03015107 -13.71011433 -0.17425158 0 0 Z " fill="#F6F90A" transform="translate(625.0625,267.6875)"/>
<path d="M0 0 C4.16875613 0.52596456 6.26819527 2.80506467 9.25 5.625 C10.23381004 6.54487543 11.21818775 7.46414411 12.203125 8.3828125 C13.12609375 9.24648438 14.0490625 10.11015625 15 11 C16.32661525 12.17430016 17.65914351 13.34198758 19 14.5 C22.20899244 17.28814098 25.35916444 20.13528185 28.5 23 C36.39295253 30.28330977 36.39295253 30.28330977 44.7265625 37.04296875 C50.83895261 41.69728197 54.13823518 45.61747035 57.4921875 52.48828125 C60.95650025 58.2591442 67.17682583 60.62654386 73.0625 63.375 C77.60489252 65.56545822 80.63951369 68.28469107 84.0625 71.94921875 C85.99351932 73.99314041 88.00362085 75.84334654 90.125 77.6875 C90.77597656 78.25855469 91.42695312 78.82960938 92.09765625 79.41796875 C93.95343082 81.0074635 93.95343082 81.0074635 95.87109375 82.30078125 C97.5625 83.5 97.5625 83.5 100 86 C100.1875 89.5625 100.1875 89.5625 99 93 C94.48114642 97.77707379 89.40124376 99.09176746 83 99.3125 C76.94152019 99.15808597 73.56472259 97.56472259 69.25 93.25 C66.88482566 89.83363706 65.99970124 86.99880497 65 83 C63.00442887 80.5717978 63.00442887 80.5717978 59.0625 80.6875 C56.56208106 80.76918338 55.22794199 80.87890582 53 82.0625 C51.38469708 85.19214941 51.27977751 87.63502608 52 91 C55.44679766 100.11812431 59.65672835 105.94670191 68.0625 110.75 C71.00342662 112.00145814 73.94746334 113.05516722 77 114 C77.04898438 114.77085937 77.09796875 115.54171875 77.1484375 116.3359375 C77.22320313 117.33882813 77.29796875 118.34171875 77.375 119.375 C77.47941406 120.87160156 77.47941406 120.87160156 77.5859375 122.3984375 C77.76363964 125.15508879 77.76363964 125.15508879 80 127 C81.91006306 127.3176246 81.91006306 127.3176246 84 127.25 C84.70125 127.25515625 85.4025 127.2603125 86.125 127.265625 C88.2435669 127.15705515 88.2435669 127.15705515 90 125 C90.46396693 122.10776497 90.46396693 122.10776497 90.625 118.875 C90.69976563 117.77929688 90.77453125 116.68359375 90.8515625 115.5546875 C90.92503906 114.29011719 90.92503906 114.29011719 91 113 C91.6290625 112.85304688 92.258125 112.70609375 92.90625 112.5546875 C101.58325006 110.28089531 107.76981968 106.40942212 113 99 C116.86242919 100.5979317 119.58216189 103.22150237 122.5625 106.0625 C126.43675897 109.68986992 130.35785875 113.17546573 134.5 116.5 C139.22739082 120.29842756 143.69757193 124.31143057 148.1171875 128.45898438 C150.839287 131.03110339 150.839287 131.03110339 154 133 C150.31496649 142.67876271 136.0534158 149.10823576 127.109375 153.24609375 C102.2790872 164.13439897 74.33986215 165.14977365 48.5703125 156.90234375 C35.97552071 151.97467322 25.17593712 144.80259927 15 136 C14.18144531 135.38382813 13.36289062 134.76765625 12.51953125 134.1328125 C9.5159934 131.59028279 7.14151878 128.72600986 4.75 125.625 C4.03710815 124.70134644 4.03710815 124.70134644 3.30981445 123.7590332 C-5.11874455 112.69593379 -11.36017636 102.2979901 -15.4140625 88.91015625 C-15.91361286 87.28162209 -16.46699814 85.66976286 -17.03125 84.0625 C-20.02553011 74.52516335 -19.33851257 64.41609499 -19.06494141 54.53564453 C-19.01446261 52.56469409 -19.00488088 50.59267864 -19.01171875 48.62109375 C-18.53885525 31.52334492 -10.34903503 13.35153285 0 0 Z " fill="#F6FA0A" transform="translate(542,310)"/>
<path d="M0 0 C65.01 0 130.02 0 197 0 C197 18.03628349 188.27843082 33.16263914 176 46 C161.68212624 59.44561102 143.26248085 69.00106392 124 73 C122.61554688 73.30550781 122.61554688 73.30550781 121.203125 73.6171875 C103.1939979 76.88750162 83.39264375 76.89417372 66 71 C64.13601563 70.45666016 64.13601563 70.45666016 62.234375 69.90234375 C48.70443918 65.79603607 36.50960426 59.5495099 26 50 C25.09636719 49.18917969 24.19273437 48.37835937 23.26171875 47.54296875 C13.57857972 38.39554972 6.15973564 27.75499048 2 15 C1.5875 13.80375 1.175 12.6075 0.75 11.375 C0 8 0 8 0 0 Z " fill="#FBFBFB" transform="translate(269,738)"/>
<path d="M0 0 C65.01 0 130.02 0 197 0 C197 16.11899195 190.26641056 28.85669059 180 41 C179.22398437 41.97453125 178.44796875 42.9490625 177.6484375 43.953125 C165.86974867 58.03403221 146.18865078 66.7153752 129 72 C128.13745605 72.26780273 127.27491211 72.53560547 126.38623047 72.81152344 C118.17089515 75.1272925 110.25010356 75.55899847 101.75 75.5 C100.70752106 75.49685791 100.70752106 75.49685791 99.64398193 75.49365234 C70.18001976 75.31185397 43.4355303 66.76145702 22 46 C21.1814856 45.22958374 21.1814856 45.22958374 20.34643555 44.44360352 C10.21638687 34.69258438 2.11563349 22.06473144 0 8 C0 5.36 0 2.72 0 0 Z " fill="#FBFBFB" transform="translate(786,738)"/>
<path d="M0 0 C4.29 0 8.58 0 13 0 C13.44577393 0.94166016 13.89154785 1.88332031 14.35083008 2.85351562 C16.50440087 7.4024949 18.65839604 11.95127317 20.8125 16.5 C21.2133783 17.34655151 21.61425659 18.19310303 22.02728271 19.06530762 C26.63324285 28.79120356 31.24260916 38.51545871 35.86328125 48.234375 C36.45468147 49.47831024 36.45468147 49.47831024 37.05802917 50.74737549 C37.8507472 52.41471426 38.64346672 54.08205231 39.43618774 55.74938965 C46.34411575 70.27988947 53.22681969 84.82182317 60.06713867 99.38427734 C63.51928653 106.73285684 66.98028471 114.07708373 70.45703125 121.4140625 C83.49420039 148.93043528 83.49420039 148.93043528 88.5625 160.0625 C88.92657959 160.85317871 89.29065918 161.64385742 89.66577148 162.45849609 C91.02363635 165.4743673 92 167.65323943 92 171 C75.83 171 59.66 171 43 171 C44.80830618 166.47923455 46.7976025 162.11604456 48.87890625 157.71875 C52.47724122 148.99247426 52.42559343 137.06374104 49.4375 128.125 C43.92838018 115.25105685 35.28112178 107.290636 22.9296875 101.1640625 C13.17269293 97.28728332 -0.82133836 97.23874929 -10.5625 101.0625 C-21.40741837 106.38745992 -29.54142663 114.27107993 -35 125 C-35.5775 126.134375 -36.155 127.26875 -36.75 128.4375 C-40.16695084 138.08756996 -38.75339053 150.70449377 -35 160 C-33.75108265 162.4755326 -32.43721151 164.85906205 -30.98828125 167.22265625 C-30 169 -30 169 -30 171 C-46.17 171 -62.34 171 -79 171 C-78.07947634 166.39738168 -76.64755678 162.75452917 -74.640625 158.5859375 C-74.29966293 157.86655502 -73.95870087 157.14717255 -73.60740662 156.4059906 C-72.49363419 154.05973327 -71.3719183 151.71737161 -70.25 149.375 C-69.4784811 147.75370934 -68.70740706 146.1322069 -67.93676758 144.51049805 C-62.70295961 133.50950694 -57.43022684 122.52650829 -52.11230469 111.56591797 C-51.62536133 110.56061035 -51.13841797 109.55530273 -50.63671875 108.51953125 C-50.22123779 107.66464111 -49.80575684 106.80975098 -49.37768555 105.92895508 C-48.25125746 103.53417257 -47.16589792 101.1302869 -46.09692383 98.7097168 C-44.0772089 94.14460202 -41.95999831 89.63114728 -39.8125 85.125 C-39.42811768 84.31562988 -39.04373535 83.50625977 -38.64770508 82.67236328 C-37.02427562 79.25409658 -35.39825507 75.83706436 -33.77246094 72.41992188 C-32.57656623 69.90537822 -31.38200835 67.39020245 -30.1875 64.875 C-29.82696533 64.11848145 -29.46643066 63.36196289 -29.0949707 62.58251953 C-26.98663139 58.14272586 -24.95680708 53.67507966 -22.97137451 49.17907715 C-21.46949144 45.80991412 -19.89749407 42.47504454 -18.3203125 39.140625 C-17.98506561 38.42952576 -17.64981873 37.71842651 -17.30441284 36.98577881 C-16.24554363 34.74007664 -15.18537706 32.49499053 -14.125 30.25 C-12.73108645 27.29719746 -11.33782836 24.34408695 -9.9453125 21.390625 C-9.60993469 20.67934448 -9.27455688 19.96806396 -8.92901611 19.23522949 C-5.91719001 12.83963325 -2.95247687 6.42325688 0 0 Z " fill="#F9F9FA" transform="translate(361,551)"/>
<path d="M0 0 C4.62 0 9.24 0 14 0 C19.24835481 10.37804812 24.33873522 20.81867405 29.2746582 31.34887695 C30.32715704 33.59376215 31.3831029 35.83700303 32.43945312 38.08007812 C33.12259536 39.53376042 33.80554533 40.98753308 34.48828125 42.44140625 C34.79768143 43.09879288 35.1070816 43.7561795 35.42585754 44.43348694 C37.37111354 48.58817936 39.20101553 52.77998853 41 57 C41.81734695 58.67456448 42.6492613 60.34215022 43.5 62 C44.87664672 64.68269618 46.14850593 67.3516322 47.32226562 70.13085938 C49.11550313 74.3346919 51.11120255 78.42953434 53.125 82.53125 C53.51316895 83.32599731 53.90133789 84.12074463 54.30126953 84.9395752 C55.53258341 87.46050099 56.76601823 89.98037916 58 92.5 C59.62693411 95.8219754 61.2516348 99.14502937 62.875 102.46875 C63.24383301 103.21999146 63.61266602 103.97123291 63.99267578 104.74523926 C66.12696559 109.11562695 68.11036682 113.51846697 70 118 C70.65129797 119.34090759 71.31513275 120.67592331 72 122 C73.22370412 124.36582797 74.30696507 126.72640973 75.34521484 129.18334961 C76.94809752 132.93756549 78.72366274 136.59867967 80.5390625 140.25390625 C81.2086993 141.61635665 81.87795899 142.97899245 82.546875 144.34179688 C83.58779527 146.45881028 84.63099456 148.57456536 85.68066406 150.68725586 C86.70312778 152.74769688 87.71558531 154.81281008 88.7265625 156.87890625 C89.04009674 157.50406631 89.35363098 158.12922638 89.67666626 158.77333069 C91.59578462 162.72049107 92.2508166 165.50489962 93 170 C76.83 170 60.66 170 44 170 C45.50466344 166.23834139 47.07574751 162.88075945 49 159.35546875 C53.36266525 149.07934709 54.01695394 136.01740032 50 125.5625 C44.20695867 113.73369215 35.07729953 104.85520568 23 99.5 C12.71829877 96.19094673 -0.67326155 96.29748766 -10.58203125 100.67578125 C-23.38308071 107.68637215 -31.87745163 116.92858591 -36.65234375 130.91015625 C-38.77106699 143.64630159 -36.69771039 154.73427731 -30.2421875 165.71484375 C-29 168 -29 168 -29 170 C-45.17 170 -61.34 170 -78 170 C-77.1636695 165.81834749 -76.25462888 163.06042814 -74.47265625 159.28515625 C-73.93721191 158.14401367 -73.40176758 157.00287109 -72.85009766 155.82714844 C-72.2543479 154.57221049 -71.65847804 153.31732955 -71.0625 152.0625 C-70.43753854 150.73621443 -69.81303843 149.40971139 -69.18896484 148.08300781 C-67.4901792 144.47588133 -65.7840847 140.87226 -64.0758667 137.26959229 C-62.99369697 134.98670345 -61.91288803 132.70317535 -60.83251953 130.41943359 C-57.44758551 123.26444654 -54.05946052 116.11098222 -50.6672821 108.95942688 C-45.39161307 97.83610074 -40.14091501 86.70117068 -34.90551758 75.55883789 C-34.25082264 74.16552319 -33.59611887 72.77221264 -32.94140625 71.37890625 C-32.61827957 70.69119644 -32.29515289 70.00348663 -31.9622345 69.29493713 C-29.61701029 64.30607062 -27.26124215 59.32225654 -24.90234375 54.33984375 C-16.37851223 36.32249434 -8.07466631 18.22330513 0 0 Z " fill="#F9F9F9" transform="translate(877,552)"/>
<path d="M0 0 C2.05154496 -0.00622309 4.10308264 -0.01545299 6.15460205 -0.0274353 C11.6878034 -0.05065871 17.22003858 -0.03031459 22.75317621 -0.00039196 C28.56379709 0.02491495 34.37436995 0.01419202 40.18502808 0.00872803 C49.93763758 0.00515152 59.68986803 0.02960056 69.44238281 0.07128906 C80.69542867 0.11908623 91.94787605 0.1243126 103.20099556 0.10633874 C114.05811598 0.08983029 124.91502361 0.10173235 135.77212143 0.12706757 C140.37870763 0.1374327 144.98514791 0.13829028 149.59173965 0.13141632 C155.02082745 0.12473017 160.44928431 0.14313874 165.87824249 0.18043137 C167.86308593 0.19018587 169.84799176 0.19160415 171.83284378 0.1837883 C186.81246486 0.13278116 198.04276015 1.73542241 209.26123047 12.61230469 C216.48055126 20.52894624 217.32373047 28.27940294 217.32373047 38.87402344 C129.87373047 38.87402344 42.42373047 38.87402344 -47.67626953 38.87402344 C-46.48890111 21.06349712 -46.48890111 21.06349712 -41.67626953 14.87402344 C-41.21607422 14.26300781 -40.75587891 13.65199219 -40.28173828 13.02246094 C-29.41045285 0.52736326 -15.31616107 -0.1453232 0 0 Z " fill="#FCFCFC" transform="translate(541.67626953125,871.1259765625)"/>
<path d="M0 0 C6.6 0 13.2 0 20 0 C20 83.49 20 166.98 20 253 C13.4 253 6.8 253 0 253 C0 169.51 0 86.02 0 0 Z " fill="#F5F5F5" transform="translate(616,561)"/>
<path d="M0 0 C1.90749023 -0.00483398 1.90749023 -0.00483398 3.85351562 -0.00976562 C28.64094372 0.13013264 50.3622306 9.06710838 68.9375 25.3125 C69.4732666 25.77575684 70.0090332 26.23901367 70.56103516 26.71630859 C84.8252725 39.29642654 94.31929914 55.2341309 99.9375 73.3125 C100.20167725 74.00706299 100.46585449 74.70162598 100.73803711 75.41723633 C103.58101384 83.43431285 103.44687806 91.48406271 103.375 99.875 C103.37162628 100.63294861 103.36825256 101.39089722 103.36477661 102.17181396 C103.22954305 123.08849199 98.66899777 146.27491067 83.9375 162.3125 C79.39498395 162.3125 79.00641364 161.89394063 75.875 158.9375 C73.59663102 156.81218844 71.54465865 155.05060577 68.9375 153.3125 C70.27000791 149.7249787 71.768217 146.4760377 73.9375 143.3125 C74.5975 143.3125 75.2575 143.3125 75.9375 143.3125 C76.0921875 142.0440625 76.0921875 142.0440625 76.25 140.75 C76.87007483 137.64962583 77.81920526 135.0978226 79.109375 132.2265625 C80.01500904 130.13335175 80.80805142 128.02739741 81.5625 125.875 C81.80226563 125.19566406 82.04203125 124.51632812 82.2890625 123.81640625 C87.16934547 104.97145816 85.69811192 83.61525472 76.9375 66.3125 C76.37417969 65.178125 75.81085938 64.04375 75.23046875 62.875 C68.20168668 49.96969522 58.7517456 40.73201036 46.9375 32.3125 C46.10476563 31.714375 45.27203125 31.11625 44.4140625 30.5 C39.3532402 27.18369324 33.97603153 25.04630134 28.3125 23 C27.60762451 22.74500732 26.90274902 22.49001465 26.17651367 22.22729492 C5.86775873 15.27588061 -19.02616111 18.25053911 -38.0625 27.3125 C-44.67479336 30.96320787 -50.48730479 35.2328777 -56.0625 40.3125 C-59.77295247 38.73469077 -62.36156384 36.40546752 -65.3125 33.6875 C-66.20453125 32.87023437 -67.0965625 32.05296875 -68.015625 31.2109375 C-68.69109375 30.58445312 -69.3665625 29.95796875 -70.0625 29.3125 C-66.33917361 19.70112258 -50.92654416 12.73967834 -42.0625 8.3125 C-28.25089636 2.44980165 -14.97339606 -0.19030752 0 0 Z " fill="#F9F9F6" transform="translate(625.0625,267.6875)"/>
<path d="M0 0 C4.28553996 0.47957233 6.76931405 3.2187222 9.75 6.0625 C10.25660156 6.53494141 10.76320313 7.00738281 11.28515625 7.49414062 C12.52949613 8.65630711 13.76558064 9.82730161 15 11 C14.23816406 12.20269531 14.23816406 12.20269531 13.4609375 13.4296875 C9.31673185 20.19192412 6.05183735 26.89447968 3.5625 34.4375 C3.31612793 35.18177246 3.06975586 35.92604492 2.81591797 36.69287109 C-3.94799624 58.13837307 -0.18433694 80.35578813 9.79296875 100.01171875 C20.06943836 119.19476746 37.72083073 133.84151682 58.43188477 140.42675781 C81.57288908 147.36521754 104.85228363 144.27665925 126 133 C130.91465417 129.99545073 135.49703555 126.58474168 140 123 C143.52238047 124.56367357 146.27123994 126.69495889 149.25 129.125 C150.14203125 129.84945312 151.0340625 130.57390625 151.953125 131.3203125 C152.96632813 132.15175781 152.96632813 132.15175781 154 133 C150.31496649 142.67876271 136.0534158 149.10823576 127.109375 153.24609375 C102.2790872 164.13439897 74.33986215 165.14977365 48.5703125 156.90234375 C35.97552071 151.97467322 25.17593712 144.80259927 15 136 C14.18144531 135.38382813 13.36289062 134.76765625 12.51953125 134.1328125 C9.5159934 131.59028279 7.14151878 128.72600986 4.75 125.625 C4.03710815 124.70134644 4.03710815 124.70134644 3.30981445 123.7590332 C-5.11874455 112.69593379 -11.36017636 102.2979901 -15.4140625 88.91015625 C-15.91361286 87.28162209 -16.46699814 85.66976286 -17.03125 84.0625 C-20.02553011 74.52516335 -19.33851257 64.41609499 -19.06494141 54.53564453 C-19.01446261 52.56469409 -19.00488088 50.59267864 -19.01171875 48.62109375 C-18.53885525 31.52334492 -10.34903503 13.35153285 0 0 Z " fill="#FAFAF7" transform="translate(542,310)"/>
<path d="M0 0 C0.84896851 -0.0065712 1.69793701 -0.0131424 2.57263184 -0.01991272 C5.38989343 -0.03966715 8.20710163 -0.05131371 11.02441406 -0.0612793 C11.9859565 -0.06535482 12.94749893 -0.06943035 13.93817902 -0.07362938 C19.0284453 -0.09450029 24.11868454 -0.10879701 29.20898438 -0.11816406 C34.46603055 -0.12922448 39.72265297 -0.16361728 44.97954941 -0.20333576 C49.0219196 -0.22948834 53.06418869 -0.23785475 57.10663605 -0.24144554 C59.04430245 -0.24631581 60.98196422 -0.25794233 62.91954803 -0.27648354 C65.63420602 -0.30084376 68.34776607 -0.2999156 71.0625 -0.29296875 C72.25972687 -0.31218384 72.25972687 -0.31218384 73.48114014 -0.33178711 C78.71157249 -0.28308906 81.6645795 0.69434449 85.79003906 4.17700195 C89.79003906 9.17700195 89.79003906 9.17700195 89.79003906 27.17700195 C54.48003906 27.17700195 19.17003906 27.17700195 -17.20996094 27.17700195 C-17.20996094 9.17700195 -17.20996094 9.17700195 -13.83496094 4.11450195 C-9.36911234 0.06215786 -5.86486445 0.0195598 0 0 Z " fill="#F6F6F6" transform="translate(590.2099609375,828.822998046875)"/>
<path d="M0 0 C1.00933594 -0.0153479 1.00933594 -0.0153479 2.0390625 -0.03100586 C10.92371464 0.12438862 17.66629619 4.50686718 23.9375 10.4375 C30.30783117 18.66458646 31.06493635 27.32927207 29.9375 37.4375 C27.61826091 45.4699866 20.9686011 51.17822146 14.140625 55.6015625 C6.92987264 59.01550278 -3.53341929 58.70634751 -11.07421875 56.59375 C-18.68205541 53.14517473 -24.34546446 46.87157108 -28.0625 39.4375 C-30.40285464 32.04866606 -30.28708933 23.04432099 -27.0625 16 C-24.21743294 11.1193075 -20.64346804 7.68990104 -16.0625 4.4375 C-15.49144531 4.00308594 -14.92039062 3.56867187 -14.33203125 3.12109375 C-9.82231821 0.26394664 -5.23058319 0.06155737 0 0 Z " fill="#F5F807" transform="translate(367.0625,664.5625)"/>
<path d="M0 0 C7.27793188 5.23708748 11.13930399 12.1218506 12.6328125 20.89453125 C13.60032799 29.99735308 11.19572713 36.58327202 5.6328125 43.89453125 C-1.09892849 50.46972013 -7.83140127 53.29411626 -17.3046875 53.45703125 C-25.63746253 53.35284745 -31.48750635 51.45478754 -37.64453125 45.8046875 C-45.34496457 37.65865949 -46.96693847 31.61723711 -46.71484375 20.4921875 C-46.25940351 15.77914857 -45.15740785 12.67567098 -42.3671875 8.89453125 C-41.94308594 8.28222656 -41.51898437 7.66992188 -41.08203125 7.0390625 C-31.25643319 -5.7971645 -13.66398904 -7.77936443 0 0 Z " fill="#F6F808" transform="translate(901.3671875,669.10546875)"/>
<path d="M0 0 C8.45859715 5.17873295 13.77632268 9.88739273 17.375 19.3125 C19.17314667 28.63016911 17.69380727 35.48952699 13.0625 43.875 C10.99441046 46.6307795 8.7549682 48.73920244 6.0625 50.875 C5.51335938 51.3803125 4.96421875 51.885625 4.3984375 52.40625 C-1.05033383 56.72686163 -7.3521965 56.71244349 -14.01953125 56.3515625 C-22.38382634 55.33417067 -28.26807793 51.67877713 -33.46484375 45.09375 C-38.70089935 37.20494474 -40.25354607 29.27203069 -38.9375 19.875 C-36.30999797 11.52744932 -30.82719618 5.03802669 -23.4375 0.4375 C-16.74462278 -2.60114485 -6.85792592 -2.63887933 0 0 Z " fill="#F9F9F9" transform="translate(636.9375,490.125)"/>
<path d="M0 0 C5.27911105 2.35942332 9.70546703 5.55048419 12 11 C13.71248553 15.51473457 13.99837932 20.663276 12.09375 25.12109375 C9.27439011 29.90135458 5.58559913 34.85612789 0.08984375 36.609375 C-5.09467917 37.5784447 -9.47257737 37.76371132 -14.25 35.375 C-18.86003974 31.39360205 -23.44615874 26.90264886 -24.3359375 20.6328125 C-24.45213822 13.17272602 -22.53561928 9.78918121 -17.5 4.25 C-12.18001434 -0.53798709 -6.98324256 -1.08376909 0 0 Z " fill="#F5F5F5" transform="translate(890,499)"/>
<path d="M0 0 C4.26141456 2.81738072 7.9628581 6.86321621 10.25 11.4375 C11.07065212 17.9219971 10.13926724 23.13698436 6.25 28.4375 C2.95619327 32.31889537 -0.06954868 34.13000483 -5.1015625 35.05078125 C-11.08205217 35.37733904 -15.67915516 35.26259412 -20.4375 31.375 C-24.67595682 26.8461136 -26.80727815 22.25415497 -27.3125 16.0625 C-27.10107141 10.4404216 -24.44129969 6.52984999 -20.75 2.4375 C-15.07273775 -2.70104394 -6.81086168 -3.48077223 0 0 Z " fill="#F5F5F5" transform="translate(375.75,500.5625)"/>
<path d="M0 0 C2 3 2 3 2 6 C-14.17 6 -30.34 6 -47 6 C-45.55370416 3.10740831 -44.06512057 3.02170686 -41 2 C-39.63407817 1.91432754 -38.26435142 1.88226353 -36.89575195 1.88647461 C-36.07512772 1.88655014 -35.25450348 1.88662567 -34.40901184 1.88670349 C-33.0870002 1.89444542 -33.0870002 1.89444542 -31.73828125 1.90234375 C-30.37959175 1.90446617 -30.37959175 1.90446617 -28.99345398 1.90663147 C-26.09976909 1.91222999 -23.20616151 1.92478219 -20.3125 1.9375 C-18.35091258 1.94251519 -16.38932394 1.94707807 -14.42773438 1.95117188 C-9.61845979 1.96219893 -4.809243 1.97946253 0 2 C0 1.34 0 0.68 0 0 Z " fill="#DDDDDD" transform="translate(451,716)"/>
<path d="M0 0 C0.66 0.99 1.32 1.98 2 3 C4.05418895 3.43685816 4.05418895 3.43685816 6.44970703 3.34057617 C7.83091232 3.34023628 7.83091232 3.34023628 9.24002075 3.33988953 C10.23589203 3.32440567 11.23176331 3.30892181 12.2578125 3.29296875 C13.27600067 3.28872391 14.29418884 3.28447906 15.3432312 3.28010559 C18.60408673 3.26327579 21.86433041 3.22561546 25.125 3.1875 C27.33202234 3.17245874 29.53905434 3.15876937 31.74609375 3.14648438 C37.16427223 3.1133583 42.58209242 3.06311653 48 3 C48 3.66 48 4.32 48 5 C31.83 5 15.66 5 -1 5 C-0.67 3.35 -0.34 1.7 0 0 Z " fill="#C5C5C5" transform="translate(283,717)"/>
<path d="M0 0 C1.6065676 0.25620684 3.2102483 0.53055871 4.8125 0.8125 C6.15248047 1.03873047 6.15248047 1.03873047 7.51953125 1.26953125 C10.29652884 2.08732424 11.22157775 2.75786307 13 5 C13.34057617 6.99291992 13.34057617 6.99291992 13.29296875 9.23046875 C13.28330078 10.03291016 13.27363281 10.83535156 13.26367188 11.66210938 C13.23853516 12.49548828 13.21339844 13.32886719 13.1875 14.1875 C13.17396484 15.03248047 13.16042969 15.87746094 13.14648438 16.74804688 C13.11115799 18.83230384 13.05735139 20.91623277 13 23 C12.67 23 12.34 23 12 23 C12 17.39 12 11.78 12 6 C7.55007426 4.22002971 5.56288469 3.78777281 1 4 C0.67 2.68 0.34 1.36 0 0 Z " fill="#464646" transform="translate(470,721)"/>
<path d="M0 0 C0.33 0 0.66 0 1 0 C1 5.61 1 11.22 1 17 C0.01 16.67 -0.98 16.34 -2 16 C-2 11.38 -2 6.76 -2 2 C-1.34 2 -0.68 2 0 2 C0 1.34 0 0.68 0 0 Z " fill="#EBEBEB" transform="translate(476,904)"/>
<path d="M0 0 C5.28 0 10.56 0 16 0 C11.5 3.375 11.5 3.375 7.234375 3.29296875 C6.34492187 3.28330078 5.45546875 3.27363281 4.5390625 3.26367188 C3.61867188 3.23853516 2.69828125 3.21339844 1.75 3.1875 C0.81414063 3.17396484 -0.12171875 3.16042969 -1.0859375 3.14648438 C-3.39121327 3.11119954 -5.6953106 3.06190281 -8 3 C-8 2.67 -8 2.34 -8 2 C-5.36 2 -2.72 2 0 2 C0 1.34 0 0.68 0 0 Z " fill="#EAEAEA" transform="translate(622,469)"/>
<path d="M0 0 C0.33 0 0.66 0 1 0 C1.36680873 3.85149165 1.34346474 5.52569155 -0.96875 8.71875 C-3.31267818 12.50509553 -3.65774654 15.54747425 -3.75 19.875 C-3.77964844 20.56335938 -3.80929687 21.25171875 -3.83984375 21.9609375 C-3.90980536 23.64001626 -3.95725211 25.32000812 -4 27 C-4.33 27 -4.66 27 -5 27 C-5.41871652 17.62540247 -5.7704825 9.44892685 -1 1 C-0.67 0.67 -0.34 0.34 0 0 Z " fill="#4F5050" transform="translate(327,673)"/>
<path d="M0 0 C0.66 0.33 1.32 0.66 2 1 C1.88590407 2.45922693 1.75834456 3.91740598 1.625 5.375 C1.55539062 6.18710937 1.48578125 6.99921875 1.4140625 7.8359375 C1 10 1 10 -1 12 C-1.45811675 13.97235333 -1.45811675 13.97235333 -1.625 16.125 C-1.74875 17.40375 -1.8725 18.6825 -2 20 C-2.33 20 -2.66 20 -3 20 C-3.3689719 12.68889006 -2.81552726 6.78743178 0 0 Z " fill="#424242" transform="translate(336,502)"/>
<path d="M0 0 C4.95 0 9.9 0 15 0 C15 0.99 15 1.98 15 3 C9.72 3 4.44 3 -1 3 C-0.67 2.01 -0.34 1.02 0 0 Z " fill="#DFE006" transform="translate(360,719)"/>
<path d="M0 0 C1.1015625 1.7109375 1.1015625 1.7109375 2 4 C1.4609375 6.2890625 1.4609375 6.2890625 0.375 8.625 C0.03210938 9.40101563 -0.31078125 10.17703125 -0.6640625 10.9765625 C-2.19502007 13.29538127 -3.44583839 13.99773405 -6 15 C-4.40109514 9.80355921 -2.25861997 4.93387858 0 0 Z " fill="#D6D5D6" transform="translate(307,666)"/>
<path d="M0 0 C3.96 0 7.92 0 12 0 C10.515 1.98 10.515 1.98 9 4 C5.3125 4.25 5.3125 4.25 2 4 C1.34 2.68 0.68 1.36 0 0 Z " fill="#292928" transform="translate(362,535)"/>
<path d="M0 0 C6.0546875 -0.1953125 6.0546875 -0.1953125 8 0 C10 2 10 2 10 4 C6.37 3.67 2.74 3.34 -1 3 C-0.67 2.01 -0.34 1.02 0 0 Z " fill="#F9FC2B" transform="translate(637,287)"/>
<path d="M0 0 C6.27 0 12.54 0 19 0 C19 0.33 19 0.66 19 1 C17.35 1.33 15.7 1.66 14 2 C14 2.33 14 2.66 14 3 C11.36 3 8.72 3 6 3 C6 2.67 6 2.34 6 2 C3.03 1.505 3.03 1.505 0 1 C0 0.67 0 0.34 0 0 Z " fill="#1E1E1D" transform="translate(875,649)"/>
<path d="M0 0 C-1.6396875 0.6496875 -1.6396875 0.6496875 -3.3125 1.3125 C-6.15166749 2.52114158 -7.90788546 3.70863646 -10 6 C-12.1875 7.1875 -12.1875 7.1875 -14 8 C-13.6503685 5.23257781 -13.30398227 4.23985619 -11.07421875 2.48046875 C-10.28660156 2.05378906 -9.49898437 1.62710937 -8.6875 1.1875 C-7.51767578 0.52814453 -7.51767578 0.52814453 -6.32421875 -0.14453125 C-3.70485652 -1.10863264 -2.57361524 -0.9599526 0 0 Z " fill="#363802" transform="translate(618,318)"/>
<path d="M0 0 C5.28 0 10.56 0 16 0 C16 0.33 16 0.66 16 1 C14.73542969 1.05607422 14.73542969 1.05607422 13.4453125 1.11328125 C11.80175781 1.21189453 11.80175781 1.21189453 10.125 1.3125 C9.03445313 1.37050781 7.94390625 1.42851563 6.8203125 1.48828125 C5.42425781 1.74158203 5.42425781 1.74158203 4 2 C3.01 3.485 3.01 3.485 2 5 C1.01 5.495 1.01 5.495 0 6 C0 4.02 0 2.04 0 0 Z " fill="#ECECEC" transform="translate(786,740)"/>
<path d="M0 0 C4.2742558 1.5830577 6.26531794 4.50568404 9 8 C5.41087588 8 4.89142971 7.33563446 2.3125 5 C1.68988281 4.443125 1.06726563 3.88625 0.42578125 3.3125 C-0.04472656 2.879375 -0.51523437 2.44625 -1 2 C-0.67 1.34 -0.34 0.68 0 0 Z " fill="#D9DB0B" transform="translate(569,307)"/>
<path d="M0 0 C0.33 0.99 0.66 1.98 1 3 C-3.39453125 7.00390625 -3.39453125 7.00390625 -5 8 C-5.99 7.67 -6.98 7.34 -8 7 C-5.42215154 4.35247996 -3.08351902 2.05567935 0 0 Z " fill="#F9FB25" transform="translate(578,300)"/>
<path d="M0 0 C2 2 2 2 2 3.875 C0.49610888 7.07076864 -2.03242817 8.23208487 -5 10 C-3.66511872 6.40608886 -2.03977277 3.24509304 0 0 Z " fill="#E3E2E3" transform="translate(988,774)"/>
<path d="M0 0 C-0.66 1.65 -1.32 3.3 -2 5 C-3.98 5 -5.96 5 -8 5 C-7 2 -7 2 -5.125 0.8125 C-3 0 -3 0 0 0 Z " fill="#E5E5E5" transform="translate(783,717)"/>
<path d="M0 0 C2 0 2 0 3.9375 1.8125 C4.618125 2.534375 5.29875 3.25625 6 4 C6.5775 4.5775 7.155 5.155 7.75 5.75 C8.1625 6.1625 8.575 6.575 9 7 C8.01 7.495 8.01 7.495 7 8 C5.0546875 7.00390625 5.0546875 7.00390625 2.875 5.5625 C2.15054688 5.08941406 1.42609375 4.61632812 0.6796875 4.12890625 C0.12539063 3.75636719 -0.42890625 3.38382812 -1 3 C-0.67 2.01 -0.34 1.02 0 0 Z " fill="#E4E4E4" transform="translate(689,265)"/>
<path d="M0 0 C0.66 0.99 1.32 1.98 2 3 C1.34 3.66 0.68 4.32 0 5 C-0.474375 5.825 -0.94875 6.65 -1.4375 7.5 C-3 10 -3 10 -6 12 C-4.68139111 7.38486888 -2.78644563 3.90102388 0 0 Z " fill="#282829" transform="translate(524,306)"/>
<path d="M0 0 C-0.33 0.66 -0.66 1.32 -1 2 C-3.64 2 -6.28 2 -9 2 C-9.33 1.34 -9.66 0.68 -10 0 C-6.7169902 -1.6415049 -3.57454967 -0.51888624 0 0 Z " fill="#0B0C0B" transform="translate(890,537)"/>
<path d="M0 0 C0.66 0.99 1.32 1.98 2 3 C0.02 5.64 -1.96 8.28 -4 11 C-4.33 10.34 -4.66 9.68 -5 9 C-4.00390625 6.8359375 -4.00390625 6.8359375 -2.5625 4.375 C-2.08941406 3.55773437 -1.61632812 2.74046875 -1.12890625 1.8984375 C-0.75636719 1.27195312 -0.38382812 0.64546875 0 0 Z " fill="#D5D5D6" transform="translate(314,653)"/>
<path d="M0 0 C2.15377564 2.62198774 3.40072174 4.64404172 4 8 C3.01 8 2.02 8 1 8 C0.34 7.34 -0.32 6.68 -1 6 C-0.625 2.875 -0.625 2.875 0 0 Z " fill="#DBDC0C" transform="translate(610,339)"/>
<path d="M0 0 C-0.66 0.66 -1.32 1.32 -2 2 C-2.33 1.67 -2.66 1.34 -3 1 C-5.34987262 0.76472227 -7.70556039 0.58613583 -10.0625 0.4375 C-11.35285156 0.35371094 -12.64320313 0.26992188 -13.97265625 0.18359375 C-15.47119141 0.09271484 -15.47119141 0.09271484 -17 0 C-17 -0.33 -17 -0.66 -17 -1 C-15.10590022 -1.22354607 -13.2095652 -1.42819951 -11.3125 -1.625 C-9.72888672 -1.79902344 -9.72888672 -1.79902344 -8.11328125 -1.9765625 C-4.86283654 -2.0010326 -2.89769204 -1.40852563 0 0 Z " fill="#EBEE03" transform="translate(637,335)"/>
<path d="M0 0 C0.66 0.33 1.32 0.66 2 1 C-0.35684596 4.34920216 -3.06799526 7.14723863 -6 10 C-6.66 9.67 -7.32 9.34 -8 9 C-5.36 6.03 -2.72 3.06 0 0 Z " fill="#DDDCDD" transform="translate(981,785)"/>
<path d="M0 0 C3.63 0.33 7.26 0.66 11 1 C11 1.33 11 1.66 11 2 C7.37 2.33 3.74 2.66 0 3 C0 2.01 0 1.02 0 0 Z " fill="#F9FD21" transform="translate(609,287)"/>
<path d="M0 0 C0.99 0.33 1.98 0.66 3 1 C0.36 2.98 -2.28 4.96 -5 7 C-5.66 6.67 -6.32 6.34 -7 6 C-5.90716423 4.96704564 -4.80029421 3.94892165 -3.6875 2.9375 C-3.07261719 2.36902344 -2.45773437 1.80054688 -1.82421875 1.21484375 C-0.92123047 0.61349609 -0.92123047 0.61349609 0 0 Z " fill="#202021" transform="translate(571,817)"/>
<path d="M0 0 C1.25 1.5625 1.25 1.5625 2 4 C0.93237266 6.57001015 -0.46544943 8.6530403 -2 11 C-2.95465783 8.83032311 -3.14401212 7.43671207 -2.3984375 5.17578125 C-1.64129615 3.4315257 -0.82390802 1.71372869 0 0 Z " fill="#E9EB01" transform="translate(910,701)"/>
<path d="M0 0 C0.66 0 1.32 0 2 0 C0.95902388 3.86648272 -0.03698408 7.49461443 -2 11 C-2.66 11 -3.32 11 -4 11 C-2.7874262 7.27566618 -1.49140021 3.62197194 0 0 Z " fill="#D9D8D9" transform="translate(809,697)"/>
<path d="M0 0 C0.66 1.32 1.32 2.64 2 4 C0.625 6 0.625 6 -1 8 C-1.66 8 -2.32 8 -3 8 C-1.125 2.25 -1.125 2.25 0 0 Z " fill="#2F2F30" transform="translate(335,570)"/>
<path d="M0 0 C0.66 0.33 1.32 0.66 2 1 C0.25 3.9375 0.25 3.9375 -2 7 C-3.32 7.33 -4.64 7.66 -6 8 C-4.02 5.36 -2.04 2.72 0 0 Z " fill="#E2E70D" transform="translate(655,409)"/>
<path d="M0 0 C-1.29299694 2.88437779 -2.65941363 4.87219421 -5 7 C-5.66 6.34 -6.32 5.68 -7 5 C-2.25 0 -2.25 0 0 0 Z " fill="#292A2A" transform="translate(969,777)"/>
<path d="M0 0 C2.64 0.33 5.28 0.66 8 1 C8 1.99 8 2.98 8 4 C6.02 4 4.04 4 2 4 C1.34 2.68 0.68 1.36 0 0 Z " fill="#E6E6E6" transform="translate(469,718)"/>
<path d="M0 0 C2.375 0.25 2.375 0.25 5 1 C6.3125 3.0625 6.3125 3.0625 7 5 C6.34 5.66 5.68 6.32 5 7 C4.319375 5.7625 4.319375 5.7625 3.625 4.5 C2.820625 3.2625 2.820625 3.2625 2 2 C1.34 2 0.68 2 0 2 C0 1.34 0 0.68 0 0 Z " fill="#DEDEDE" transform="translate(893,503)"/>
<path d="M0 0 C0.66 0.33 1.32 0.66 2 1 C-3.75 6 -3.75 6 -6 6 C-6 5.01 -6 4.02 -6 3 C-4.03533587 1.93224776 -2.03144641 0.93446535 0 0 Z " fill="#F7F71F" transform="translate(681,432)"/>
<path d="M0 0 C2.1640625 0.0234375 2.1640625 0.0234375 4.625 0.375 C5.85089844 0.54128906 5.85089844 0.54128906 7.1015625 0.7109375 C7.72804688 0.80632813 8.35453125 0.90171875 9 1 C9 1.33 9 1.66 9 2 C7.329375 2.2165625 7.329375 2.2165625 5.625 2.4375 C2.17857953 2.78372035 2.17857953 2.78372035 0 4 C-0.66 3.34 -1.32 2.68 -2 2 C-1.34 1.34 -0.68 0.68 0 0 Z " fill="#242424" transform="translate(255,723)"/>
<path d="M0 0 C0.66 0.33 1.32 0.66 2 1 C1.1875 3.9375 1.1875 3.9375 0 7 C-0.99 7.33 -1.98 7.66 -3 8 C-1.125 2.25 -1.125 2.25 0 0 Z " fill="#C0C0C0" transform="translate(297,687)"/>
<path d="M0 0 C0.66 0 1.32 0 2 0 C1.75 2.375 1.75 2.375 1 5 C-1.0625 6.3125 -1.0625 6.3125 -3 7 C-1.125 2.25 -1.125 2.25 0 0 Z " fill="#D7D6D7" transform="translate(731,426)"/>
<path d="M0 0 C0 3.20395416 -0.74335022 5.09399739 -2 8 C-2.66 7.34 -3.32 6.68 -4 6 C-3.8125 4 -3.8125 4 -3 2 C-2.01 1.34 -1.02 0.68 0 0 Z " fill="#F9FC24" transform="translate(704,400)"/>
</svg>
