<?xml version="1.0" encoding="UTF-8"?>
<svg version="1.1" xmlns="http://www.w3.org/2000/svg" width="1254" height="1254">
<path d="M0 0 C413.82 0 827.64 0 1254 0 C1254 413.82 1254 827.64 1254 1254 C840.18 1254 426.36 1254 0 1254 C0 840.18 0 426.36 0 0 Z " fill="#FDFDFD" transform="translate(0,0)"/>
<path d="M0 0 C1.34905113 -0.00964136 2.69809094 -0.02098818 4.04711497 -0.03387552 C7.72555171 -0.06395489 11.40366202 -0.06943215 15.08220625 -0.07047355 C19.06056231 -0.07585602 23.03877115 -0.10404517 27.01704407 -0.12893677 C35.70086113 -0.17877613 44.38459183 -0.19889726 53.06853056 -0.21278453 C58.49618885 -0.22158854 63.92381891 -0.23659246 69.3514595 -0.25279427 C84.39659215 -0.29671402 99.4417004 -0.33373258 114.48689842 -0.34342098 C115.44815066 -0.34404768 116.40940291 -0.34467439 117.39978401 -0.34532008 C119.34820437 -0.34656917 121.29662474 -0.34781692 123.24504511 -0.34906333 C124.69571418 -0.35000585 124.69571418 -0.35000585 126.1756897 -0.35096741 C127.14399018 -0.35159082 128.11229065 -0.35221422 129.10993357 -0.35285652 C144.80470406 -0.36429783 160.49883289 -0.4262555 176.19336705 -0.51018434 C192.32925478 -0.5957761 208.46482226 -0.63998439 224.6009413 -0.64261633 C233.6520191 -0.64503032 242.7022926 -0.66488758 251.75315475 -0.73025322 C259.45812376 -0.78567954 267.16201956 -0.80302623 274.86714338 -0.77152949 C278.79459543 -0.75658817 282.71990774 -0.75905579 286.64710426 -0.81005478 C313.86823078 -1.14317177 313.86823078 -1.14317177 321.50714111 5.84017944 C324.13782692 8.73105526 324.13782692 8.73105526 326.35049438 11.55503845 C327.93887244 13.1542102 329.54022746 14.7407742 331.16299438 16.30503845 C332.10078735 17.28730408 332.10078735 17.28730408 333.05752563 18.28941345 C334.9905158 20.19935263 336.95860411 21.95882933 339.01846313 23.72691345 C344.74054226 28.69016482 349.97410699 34.13248111 355.28408813 39.5276947 C359.60341707 43.88902683 363.99613573 48.05141527 368.65322876 52.04917908 C370.74487403 53.9049426 372.55842142 55.91095116 374.35049438 58.05503845 C376.79469704 60.87818725 379.23473247 63.4129562 382.10049438 65.80503845 C386.33478218 69.38471032 389.9819013 73.40240917 393.70132446 77.49961853 C397.94774901 82.16405363 402.36400247 86.61497772 406.87783813 91.0198822 C407.6938147 91.85648376 408.50979126 92.69308533 409.35049438 93.55503845 C410.64589032 94.86007167 410.64589032 94.86007167 411.96745586 96.19146919 C414.9402741 99.81365745 415.03832358 103.36318358 414.95176697 107.90730286 C414.95603909 108.73322343 414.96031122 109.559144 414.9647128 110.41009247 C414.97293008 113.16973928 414.94547951 115.92785658 414.91812134 118.68736267 C414.91671059 120.6685177 414.91750337 122.64967535 414.92033386 124.63082886 C414.92176837 130.00449839 414.89237247 135.37760982 414.85746408 140.75114965 C414.8262067 146.36854059 414.82327031 151.98594433 414.81733704 157.60340881 C414.80179683 168.23874736 414.76076575 178.87382892 414.71058959 189.5090543 C414.65470182 201.61775384 414.62721101 213.72646565 414.60211241 225.83526206 C414.54985023 250.74199667 414.46190428 275.64850316 414.35049438 300.55503845 C413.5422522 300.27789001 412.73401001 300.00074158 411.90127563 299.7151947 C410.83264282 299.35296814 409.76401001 298.99074158 408.66299438 298.61753845 C407.6072522 298.25789001 406.55151001 297.89824158 405.46377563 297.5276947 C402.0723816 296.40822287 402.0723816 296.40822287 397.35049438 295.55503845 C397.35049438 235.49503845 397.35049438 175.43503845 397.35049438 113.55503845 C375.57049438 113.55503845 353.79049438 113.55503845 331.35049438 113.55503845 C318.21739283 109.17733793 310.85915199 105.40037672 304.35049438 93.55503845 C301.62759941 88.02382434 300.2251946 83.33742655 300.23696899 77.15586853 C300.23682297 76.51169479 300.23667694 75.86752106 300.23652649 75.2038269 C300.23722243 73.07737343 300.2449999 70.95100785 300.25283813 68.8245697 C300.25470345 67.34912158 300.25612682 65.87367284 300.25712585 64.39822388 C300.26094213 60.5167825 300.27076482 56.6353786 300.28182983 52.75395203 C300.29206308 48.79247037 300.29662758 44.83098265 300.30166626 40.86949158 C300.31238788 33.09799012 300.32945363 25.32651954 300.35049438 17.55503845 C260.88407678 17.59103474 221.41774015 17.64796889 181.95139629 17.7329594 C177.29137917 17.74297679 172.63136171 17.75282093 167.97134399 17.76255798 C166.57976339 17.76547004 166.57976339 17.76547004 165.16007005 17.76844093 C150.14117949 17.7994568 135.12230421 17.81644043 120.10338766 17.82823268 C104.69106149 17.84064637 89.27881547 17.86815272 73.8665399 17.90965152 C64.35734701 17.93478064 54.84828704 17.94815616 45.33906048 17.94646803 C38.81704486 17.94643826 32.29516458 17.96107682 25.77320171 17.98720273 C22.01108208 18.00184148 18.24924001 18.01005794 14.48709679 18.00084114 C10.40431673 17.99100825 6.32226911 18.01208678 2.23954773 18.03605652 C1.05567838 18.0282961 -0.12819096 18.02053568 -1.34793514 18.0125401 C-9.29319488 18.09513136 -15.70428671 19.31193478 -21.95419312 24.4495697 C-22.47239624 25.08249939 -22.99059937 25.71542908 -23.52450562 26.36753845 C-24.05817749 26.99273376 -24.59184937 27.61792908 -25.14169312 28.2620697 C-28.83567402 33.87960025 -30.09450523 38.69081625 -30.03426647 45.36610317 C-30.04199133 46.50520797 -30.04199133 46.50520797 -30.04987225 47.66732499 C-30.06347386 50.20863014 -30.05581091 52.74941731 -30.04823303 55.29074097 C-30.05367302 57.13232272 -30.06042481 58.97390099 -30.06837493 60.81547362 C-30.08641467 65.87339919 -30.08584139 70.93117806 -30.08224547 75.98912823 C-30.08162213 81.44443141 -30.09823691 86.89968514 -30.11276245 92.35496521 C-30.1355653 101.80575869 -30.14743648 111.25651527 -30.15189171 120.70733452 C-30.15834901 134.37163873 -30.18127904 148.0358762 -30.208235 161.70015354 C-30.2515212 183.8693009 -30.28150313 206.03844842 -30.30307007 228.20762634 C-30.32405255 249.74344766 -30.35131005 271.27924612 -30.38705444 292.81504822 C-30.38815392 293.47898242 -30.3892534 294.14291661 -30.39038619 294.82697003 C-30.40253092 302.15612871 -30.41484732 309.4852871 -30.42723405 316.81444538 C-30.52044511 372.06128939 -30.59203106 427.3081465 -30.64950562 482.55503845 C-30.08652267 482.54914703 -29.52353973 482.54325562 -28.9434967 482.53718567 C-26.34942077 482.5135474 -23.75536762 482.49908531 -21.16122437 482.48472595 C-20.27592041 482.47529968 -19.39061646 482.46587341 -18.47848511 482.4561615 C6.10365538 482.35441891 29.22237167 492.20956018 47.35049438 508.55503845 C48.1922522 509.3026947 49.03401001 510.05035095 49.90127563 510.82066345 C64.07497067 524.13467869 73.03388805 541.71432139 77.35049438 560.55503845 C77.35049438 561.54503845 77.35049438 562.53503845 77.35049438 563.55503845 C78.36925754 563.54582052 79.38802069 563.53660259 80.43765545 563.52710533 C105.26062537 563.30481491 130.08346576 563.14064231 154.90722179 563.03691673 C166.91202929 562.98541838 178.91617811 562.91524576 190.92056274 562.80064392 C201.38729742 562.7007694 211.85355495 562.63640859 222.32075292 562.6141535 C227.86004277 562.60114997 233.39796795 562.57073237 238.93681908 562.49773788 C244.15831907 562.42948793 249.37790213 562.40899606 254.59980583 562.42396164 C256.50855709 562.42122692 258.41737731 562.40155283 260.32574081 562.3629837 C273.82843126 562.10364092 280.42616884 564.2627209 290.35049438 573.55503845 C292.09486381 574.78108179 293.86119033 575.97757832 295.66299438 577.11753845 C296.90754358 577.9062743 298.14355698 578.7098704 299.35049438 579.55503845 C299.35049438 579.88503845 299.35049438 580.21503845 299.35049438 580.55503845 C226.42049438 580.55503845 153.49049438 580.55503845 78.35049438 580.55503845 C76.09581105 599.48594277 76.09581105 599.48594277 83.97549438 606.68003845 C85.82852487 608.17146793 85.82852487 608.17146793 87.62002563 609.2073822 C91.10450209 611.38775859 94.36749353 613.78205995 97.66299438 616.24253845 C100.20663783 618.04108531 102.77756431 619.79872162 105.35049438 621.55503845 C106.21078247 622.14446228 107.07107056 622.73388611 107.95742798 623.34117126 C118.86095876 630.78501791 129.86095852 638.01904283 141.22549438 644.74253845 C142.53357056 645.5165802 142.53357056 645.5165802 143.86807251 646.30625916 C149.58352716 649.63862441 155.40775453 652.64745464 161.35049438 655.55503845 C159.37049438 660.83503845 157.39049438 666.11503845 155.35049438 671.55503845 C151.48028018 670.78099561 149.33695365 670.23289582 146.00674438 668.50816345 C145.18335571 668.08220886 144.35996704 667.65625427 143.5116272 667.21739197 C142.63345337 666.75131531 141.75527954 666.28523865 140.85049438 665.80503845 C139.92849243 665.31769226 139.00649048 664.83034607 138.05654907 664.32823181 C121.72922353 655.57590995 106.2815023 645.50210764 91.35049438 634.55503845 C90.75849243 634.12143005 90.16649048 633.68782166 89.55654907 633.24107361 C84.86981987 629.7947921 80.20851459 626.33943502 75.78799438 622.55503845 C73.44158195 620.38690191 73.44158195 620.38690191 70.35049438 619.55503845 C70.10428345 620.56953064 69.85807251 621.58402283 69.60440063 622.6292572 C68.46219666 626.6054861 66.56256697 629.93456929 64.28799438 633.36753845 C63.89168823 633.97355896 63.49538208 634.57957947 63.08706665 635.20396423 C59.33901662 640.8027296 55.03984597 645.7217898 50.35049438 650.55503845 C49.73947876 651.23953064 49.12846313 651.92402283 48.49893188 652.6292572 C42.69087363 658.91926072 35.64879806 663.20315925 28.35049438 667.55503845 C27.7693689 667.90622742 27.18824341 668.25741638 26.58950806 668.61924744 C20.47950242 672.22905129 14.09040826 674.41764505 7.35049438 676.55503845 C5.8306897 677.04230408 5.8306897 677.04230408 4.28018188 677.53941345 C-11.88496465 681.83391353 -31.69099162 681.52703779 -47.64950562 676.55503845 C-48.86122437 676.21472595 -50.07294312 675.87441345 -51.32138062 675.52378845 C-64.29310905 671.60579701 -75.26288316 665.26301485 -85.64950562 656.55503845 C-86.49835327 655.9227533 -86.49835327 655.9227533 -87.36434937 655.2776947 C-104.23078861 642.22108644 -113.61664814 621.60433651 -118.64950562 601.55503845 C-119.04975952 600.09710876 -119.04975952 600.09710876 -119.45809937 598.60972595 C-125.14329683 574.22218926 -118.09032448 549.33280991 -105.72763062 528.28599548 C-102.83105714 523.63547331 -99.34623575 519.57984606 -95.64950562 515.55503845 C-95.20622925 515.06406677 -94.76295288 514.57309509 -94.3062439 514.06724548 C-83.12797342 501.79955081 -68.44078946 491.03216183 -51.94760132 487.48057556 C-51.14143875 487.30570114 -50.33527618 487.13082672 -49.50468445 486.95065308 C-48.58637093 486.75482384 -48.58637093 486.75482384 -47.64950562 486.55503845 C-47.6510245 485.60279709 -47.65254338 484.65055573 -47.65410829 483.66945857 C-47.743768 427.23644619 -47.81225626 370.8034402 -47.85376693 314.37037091 C-47.85875619 307.59493118 -47.86394242 300.81949162 -47.86923218 294.04405212 C-47.86975521 293.36982158 -47.87027825 292.69559103 -47.87081714 292.00092925 C-47.88785649 270.15497679 -47.91789721 248.30906577 -47.9546945 226.4631384 C-47.9935167 203.37306633 -48.01749395 180.28301413 -48.02585959 157.19290763 C-48.03134902 143.36287999 -48.0486893 129.53297133 -48.08117148 115.70298032 C-48.10230934 106.22024297 -48.10870728 96.73756717 -48.10351112 87.25480797 C-48.10094825 81.78311864 -48.10488717 76.31163728 -48.12632751 70.83998489 C-48.14582414 65.82773682 -48.14675526 60.81583615 -48.1331012 55.80357192 C-48.13141419 53.99315238 -48.13646185 52.18271097 -48.14903834 50.37233432 C-48.24685284 35.41894741 -45.97269712 23.98676059 -35.64950562 12.55503845 C-24.96069733 2.90272067 -14.1627738 -0.04770699 0 0 Z " fill="#050504" transform="translate(428.6495056152344,311.44496154785156)"/>
<path d="M0 0 C1.98770396 1.33480479 3.90909028 2.73186732 5.82519531 4.16748047 C7.31423149 5.25026457 8.80383877 6.33226361 10.29394531 7.41357422 C11.06480469 7.97802246 11.83566406 8.5424707 12.62988281 9.12402344 C16.65580264 12.0485902 20.742634 14.88530822 24.82519531 17.72998047 C26.51939893 18.91460004 28.21340805 20.09949782 29.90722656 21.28466797 C30.7510791 21.87473633 31.59493164 22.46480469 32.46435547 23.07275391 C34.98481057 24.83547878 37.5047306 26.59896531 40.02441406 28.36279297 C40.8483667 28.93956787 41.67231934 29.51634277 42.52124023 30.1105957 C44.17910826 31.271347 45.8368237 32.43231626 47.49438477 33.59350586 C51.75662254 36.57878774 56.02227284 39.55899252 60.29394531 42.53076172 C92.33747879 64.84041723 92.33747879 64.84041723 96.01269531 76.85498047 C96.59724241 82.50777222 96.30834992 88.19155217 96.01269531 93.85498047 C95.35269531 93.85498047 94.69269531 93.85498047 94.01269531 93.85498047 C93.97144531 94.67998047 93.93019531 95.50498047 93.88769531 96.35498047 C91.81138017 104.66024102 85.05986307 110.43437774 78.01269531 114.85498047 C73.06427225 117.26303661 68.91238016 117.8602869 63.45019531 117.79248047 C59.62664336 118.04346782 58.41047706 118.43182298 55.74707031 121.26513672 C53.67639334 124.39091054 51.83016818 127.57640196 50.01269531 130.85498047 C48.86368897 132.61662616 47.69907099 134.36828134 46.51269531 136.10498047 C45.78566406 137.19552734 45.78566406 137.19552734 45.04394531 138.30810547 C44.70363281 138.81857422 44.36332031 139.32904297 44.01269531 139.85498047 C45.46096803 143.40208692 47.23450884 145.01715284 50.32519531 147.22998047 C55.86637805 151.43701006 59.63115342 154.54434338 60.98925781 161.62451172 C62.63733856 167.28985363 65.50536986 169.22176075 70.48828125 172.1015625 C71.48633789 172.63894043 72.48439453 173.17631836 73.51269531 173.72998047 C75.61259165 174.93146755 77.71153713 176.1346179 79.80957031 177.33935547 C80.85822266 177.92910156 81.906875 178.51884766 82.98730469 179.12646484 C87.33374974 181.60974688 91.54933377 184.2789935 95.76269531 186.97998047 C97.31581074 187.96608292 98.86919498 188.9517621 100.42285156 189.93701172 C101.18227051 190.41992676 101.94168945 190.9028418 102.72412109 191.40039062 C106.54542617 193.8291655 110.37249475 196.2488012 114.20019531 198.66748047 C115.36023071 199.4007959 115.36023071 199.4007959 116.54370117 200.14892578 C122.95683475 204.19850143 129.3900618 208.21548678 135.82519531 212.22998047 C149.36870351 220.68338325 162.83399718 229.25663776 176.27832031 237.86669922 C177.33736572 238.54482666 178.39641113 239.2229541 179.48754883 239.92163086 C181.61636751 241.28556963 183.74446946 242.65062778 185.87182617 244.0168457 C190.727003 247.13122233 195.59114613 250.22579352 200.50097656 253.25341797 C215.35995686 262.42527854 226.48634381 270.68683812 232.32519531 287.86279297 C235.44727467 301.4509338 232.11571641 314.21391812 225.01269531 325.85498047 C218.30438617 334.82040867 210.01396977 341.94257573 199.01269531 344.85498047 C184.14884856 346.80734844 171.50256162 345.7718607 159.35644531 336.60498047 C155.40823596 333.53415097 151.69621968 330.2352522 148.01269531 326.85498047 C147.02120351 325.95967817 146.0290321 325.06512785 145.03613281 324.17138672 C143.17928231 322.49101375 141.32750464 320.80501402 139.48144531 319.11279297 C135.01341356 315.02652342 130.44038039 311.06733246 125.82910156 307.14404297 C118.98849097 301.31833717 112.26882972 295.39717111 105.66894531 289.30029297 C101.17395261 285.16225557 96.56415866 281.1677236 91.90332031 277.21826172 C85.07042067 271.41648764 78.39129709 265.49504892 71.84887695 259.36694336 C68.29216277 256.0360203 64.69055291 252.77720019 61.00097656 249.59326172 C58.47216603 247.38241558 55.99396967 245.11901603 53.51269531 242.85498047 C50.3936252 240.00973819 47.2651414 237.18298467 44.07519531 234.41748047 C38.28481245 229.38708536 32.43763289 224.27991805 27.01269531 218.85498047 C24.90859892 218.82796639 22.80440354 218.80857824 20.70019531 218.79248047 C12.3186388 218.28787656 7.51087728 214.83272344 1.01269531 209.85498047 C-0.63997152 208.83200925 -2.30237462 207.82389143 -3.98730469 206.85498047 C-4.2 207.51626953 -4.41269531 208.17755859 -4.63183594 208.85888672 C-6.80150498 213.65466814 -10.08901363 217.70344944 -13.26269531 221.88427734 C-16.35330289 226.08684659 -16.35330289 226.08684659 -16.88183594 231.17138672 C-16.58664062 232.05697266 -16.29144531 232.94255859 -15.98730469 233.85498047 C-13.33429356 241.81401385 -14.47121088 251.31696884 -17.98730469 258.85498047 C-23.82832853 268.01312897 -30.41253669 273.18403391 -40.98730469 275.85498047 C-56.61876782 277.86934427 -66.98532594 269.51948175 -78.98730469 260.85498047 C-79.69951172 260.34225586 -80.41171875 259.82953125 -81.14550781 259.30126953 C-84.09827633 257.1737347 -87.04848333 255.04277052 -89.99316406 252.90405273 C-95.61492583 248.8249206 -101.28852238 244.82564198 -106.98730469 240.85498047 C-114.24109322 235.79865079 -121.4468329 230.68265307 -128.59594727 225.47924805 C-132.03039197 222.98066745 -135.47397837 220.50488991 -138.97558594 218.10107422 C-148.10199647 211.81574881 -157.21979495 205.18859178 -159.98730469 193.85498047 C-161.08294243 182.30098242 -159.93762921 173.83671709 -152.72558594 164.74560547 C-147.30925212 158.85458172 -141.48055243 155.09551836 -133.33886719 154.65966797 C-132.10910156 154.68287109 -130.87933594 154.70607422 -129.61230469 154.72998047 C-128.36707031 154.74802734 -127.12183594 154.76607422 -125.83886719 154.78466797 C-124.89785156 154.80787109 -123.95683594 154.83107422 -122.98730469 154.85498047 C-122.75527344 154.17564453 -122.52324219 153.49630859 -122.28417969 152.79638672 C-120.67806263 149.15359713 -118.51998501 146.03164313 -116.23730469 142.79248047 C-115.75414795 142.09840088 -115.27099121 141.40432129 -114.77319336 140.68920898 C-113.18293024 138.40757097 -111.58544556 136.13110607 -109.98730469 133.85498047 C-108.89455455 132.29269182 -107.80211052 130.73018901 -106.70996094 129.16748047 C-104.38524047 125.84308646 -102.05803255 122.5204498 -99.72949219 119.19873047 C-90.87753503 106.56512724 -82.05485962 93.91140119 -73.36230469 81.16748047 C-68.79549615 74.47452299 -64.19067626 67.80932089 -59.54980469 61.16748047 C-58.69878174 59.94702026 -58.69878174 59.94702026 -57.83056641 58.7019043 C-57.2854541 57.92355225 -56.7403418 57.1452002 -56.17871094 56.34326172 C-55.65374023 55.59246338 -55.12876953 54.84166504 -54.58789062 54.06811523 C-52.50184887 51.18373932 -50.27463721 48.41866192 -48.00805664 45.67431641 C-46.71693092 43.37308013 -46.9462077 42.30114108 -47.61230469 39.79248047 C-47.84433594 39.04740234 -48.07636719 38.30232422 -48.31542969 37.53466797 C-50.36483376 29.36088196 -50.07860578 19.79399954 -46.43261719 12.13232422 C-36.28772991 -3.8527279 -16.7543147 -9.65328451 0 0 Z " fill="#070605" transform="translate(835.9873046875,628.14501953125)"/>
<path d="M0 0 C7.68755683 5.51899355 12.01698432 11.05095297 15 20 C15.67407987 29.24267202 15.25465661 38.11801508 10 46 C11.14370056 45.99333817 12.28740112 45.98667633 13.46575928 45.97981262 C24.23670117 45.91903442 35.00760833 45.87404315 45.77868271 45.84456348 C51.31639495 45.82889827 56.85396891 45.80764421 62.39160156 45.77368164 C67.73433036 45.74111897 73.07692604 45.72315343 78.4197464 45.71536827 C80.45953721 45.70981922 82.49932063 45.69898346 84.53905487 45.68280983 C87.39305955 45.6610768 90.24651201 45.65803136 93.10058594 45.65942383 C94.3694162 45.64324509 94.3694162 45.64324509 95.66387939 45.6267395 C98.98613637 45.64431383 101.53033613 45.76170855 104.52105713 47.27909851 C106.57822148 49.67281991 106.61225854 51.91181682 106.453125 54.9921875 C105.66763776 58.47270854 103.82869762 59.98848169 101 62 C98.32421875 62.125 98.32421875 62.125 96 62 C96.31453125 62.75023437 96.6290625 63.50046875 96.953125 64.2734375 C103.57059312 80.09955101 103.57059312 80.09955101 106.44140625 87.8984375 C109.80372841 97.06707102 109.80372841 97.06707102 114 105.875 C115.93510085 109.9870893 117.29389888 114.33416784 118.75390625 118.6328125 C119.9635665 121.9015496 121.40894436 124.90274503 123 128 C123.64811653 129.4901577 124.27424104 130.99012793 124.875 132.5 C125.21917969 133.34691406 125.56335938 134.19382812 125.91796875 135.06640625 C126.71650581 137.23139301 127.41277479 139.43473764 128.05078125 141.65234375 C129.74505494 148.44333313 129.74505494 148.44333313 134.1796875 153.41796875 C136.51612191 154.17464732 136.51612191 154.17464732 138.81640625 154.4453125 C141.98014228 155.24898069 143.10621479 156.34109175 145 159 C145.37751809 161.88637846 145.52448509 164.31512136 145.4375 167.1875 C145.41441772 168.33859253 145.41441772 168.33859253 145.39086914 169.51293945 C145.19778535 175.17853526 144.4634111 179.8547903 142 185 C141.51273438 186.09957031 141.02546875 187.19914063 140.5234375 188.33203125 C133.39853052 203.9008847 122.92199332 212.93800072 106.87768555 218.95703125 C100.2700134 220.96939167 93.342092 220.73922054 86.49804688 220.65185547 C84.00236296 220.6250254 81.51117377 220.65173777 79.015625 220.68359375 C63.56980755 220.7172942 50.60290247 216.4851043 38.78515625 206.04296875 C32.87863951 199.93238809 29.40072097 192.67411371 26 185 C25.63648438 184.24074219 25.27296875 183.48148438 24.8984375 182.69921875 C22.81941987 177.69597539 22.6396365 172.6031092 22.5 167.25 C22.46914307 166.51612061 22.43828613 165.78224121 22.40649414 165.02612305 C22.40604208 161.07193059 22.85881835 159.18702302 25.26171875 156.00390625 C29.24350853 153.08998591 31.21016577 153.59408185 36 154 C36.15823746 153.17617577 36.15823746 153.17617577 36.31967163 152.33570862 C37.47131153 146.72384328 39.15028672 141.61931761 41.3515625 136.33984375 C41.68308823 135.52780991 42.01461395 134.71577606 42.35618591 133.87913513 C43.4394346 131.22926886 44.53227947 128.58347256 45.625 125.9375 C46.76850129 123.14589584 47.90940238 120.35323756 49.05024719 117.56054688 C49.83611457 115.63735802 50.62281592 113.71450975 51.4103241 111.79199219 C55.68792047 101.34368858 59.8780557 90.86087987 64.0625 80.375 C67.4965625 71.774375 67.4965625 71.774375 71 63 C44.93 63 18.86 63 -8 63 C-8 120.42 -8 177.84 -8 237 C4.87 237 17.74 237 31 237 C36 241 36 241 37 244.4375 C37 248.37108373 36.41868244 249.95425175 34 253 C30.54490869 254.72754565 26.55285804 254.17510595 22.74853516 254.19287109 C21.78906479 254.20104858 20.82959442 254.20922607 19.84104919 254.21765137 C16.65706004 254.24252169 13.47311546 254.25902393 10.2890625 254.2734375 C9.20366558 254.27876118 8.11826866 254.28408485 6.99998093 254.28956985 C1.25715592 254.31630617 -4.48564729 254.33568118 -10.22851562 254.35009766 C-16.16963359 254.36676364 -22.11019879 254.41155675 -28.05110741 254.4624691 C-32.61152814 254.49606738 -37.17181636 254.50766686 -41.7323494 254.51332474 C-43.92288065 254.52005574 -46.11340262 254.53532541 -48.30381393 254.55921555 C-51.36625478 254.59071575 -54.42718684 254.59092665 -57.48974609 254.58349609 C-58.39794601 254.59990143 -59.30614594 254.61630676 -60.24186707 254.63320923 C-66.36609443 254.57224263 -66.36609443 254.57224263 -69.56314087 251.68618774 C-71.4499738 248.15878038 -71.57384941 245.94521472 -71 242 C-69.68 240.68 -68.36 239.36 -67 238 C-53.14 238 -39.28 238 -25 238 C-25 179.92 -25 121.84 -25 62 C-51.73 62 -78.46 62 -106 62 C-104.02 66.29 -102.04 70.58 -100 75 C-97.875 80.8125 -97.875 80.8125 -96.93359375 83.5078125 C-95.80963069 86.50818251 -94.40618667 89.28645896 -92.9296875 92.125 C-91.35043996 95.31003705 -90.20772259 98.66198897 -89 102 C-85.8565368 110.65355899 -85.8565368 110.65355899 -82 119 C-79.70591709 123.38547576 -78.03980033 127.98309171 -76.296875 132.609375 C-74.658408 136.89307789 -72.89523402 141.11814214 -71.11328125 145.34375 C-70 148 -70 148 -69.09765625 150.77734375 C-68.23360809 153.12928014 -68.23360809 153.12928014 -66.1953125 153.78515625 C-65.17050781 153.92244141 -65.17050781 153.92244141 -64.125 154.0625 C-61.38745431 154.44242554 -60.05072674 154.96360134 -57.7734375 156.59765625 C-54.0690445 161.61572166 -55.38083803 169.01016073 -56 175 C-58.51649641 190.06752224 -67.07346189 202.79681407 -79.40625 211.74609375 C-90.85735408 219.01174681 -101.17224558 220.65519412 -114.4609375 220.52148438 C-116.99576464 220.50003584 -119.52775867 220.52137064 -122.0625 220.546875 C-131.08723158 220.56208444 -138.74156424 220.05028034 -147 216 C-147.80252197 215.62238525 -148.60504395 215.24477051 -149.43188477 214.85571289 C-163.38804658 208.022359 -171.43572494 195.89704791 -176.5 181.625 C-178.4908675 174.35788725 -179.32629195 166.44700571 -178 159 C-175.27181167 155.22016366 -173.77042027 154.16418793 -169.1875 153.1875 C-168.135625 153.125625 -167.08375 153.06375 -166 153 C-165.76216797 152.37512695 -165.52433594 151.75025391 -165.27929688 151.10644531 C-157.48003717 130.674683 -149.38073059 110.36399709 -141.25 90.0625 C-140.97328461 89.37156754 -140.69656921 88.68063507 -140.41146851 87.96876526 C-136.94389398 79.31134071 -133.47330886 70.65512571 -130 62 C-131.11503906 61.86980469 -132.23007812 61.73960937 -133.37890625 61.60546875 C-137 61 -137 61 -138.9375 59.3125 C-140.34589562 56.24716836 -140.47772045 54.34404315 -140 51 C-138.53460693 48.34407043 -138.53460693 48.34407043 -136 46 C-133.0047764 45.27384212 -130.07729527 45.36787561 -127.00878906 45.43237305 C-126.10112289 45.43164291 -125.19345673 45.43091278 -124.25828552 45.43016052 C-121.26012269 45.43364214 -118.26351618 45.47253067 -115.265625 45.51171875 C-113.18626759 45.52104482 -111.10689918 45.52816191 -109.02752686 45.53315735 C-103.55606728 45.5522432 -98.08527194 45.60135826 -92.61407471 45.65667725 C-87.0305683 45.70783516 -81.4469545 45.73066404 -75.86328125 45.75585938 C-64.90856242 45.80947498 -53.95433645 45.89480746 -43 46 C-43 45.34 -43 44.68 -43 44 C-43.66 44 -44.32 44 -45 44 C-49.18836899 34.33309479 -50.9827913 25.29275737 -47.09765625 15.19140625 C-42.62762723 6.26725579 -35.83242368 0.42100606 -26.6875 -3.375 C-17.22934518 -4.97807709 -8.55478206 -4.65829738 0 0 Z " fill="#070605" transform="translate(614,387)"/>
<path d="M0 0 C1.65158433 -0.00406951 3.30316594 -0.00941352 4.95474243 -0.01593018 C9.42380709 -0.02956554 13.89266315 -0.0243205 18.36173129 -0.01479292 C23.04870063 -0.00717542 27.73565261 -0.01424785 32.42262268 -0.01895142 C40.29333691 -0.02440343 48.16396659 -0.01723248 56.03466797 -0.00292969 C65.11991229 0.01339008 74.20495456 0.00811098 83.29019397 -0.0084089 C91.10446153 -0.02204636 98.91866845 -0.02393223 106.73294407 -0.0160929 C111.39392567 -0.01142806 116.05481247 -0.01075858 120.71578789 -0.02070236 C125.09978131 -0.02940248 129.48351564 -0.02329477 133.86748123 -0.00601959 C135.47142292 -0.00207072 137.07538661 -0.00316124 138.67931938 -0.00980759 C151.97968742 -0.05981744 162.40931107 1.68606738 172.47875977 11.01708984 C179.9437688 19.10105691 181.30737039 27.21749195 180.97094727 37.95068359 C180.95290039 39.05476562 180.93485352 40.15884766 180.91625977 41.29638672 C180.86953775 43.99458341 180.80404867 46.69090394 180.72094727 49.38818359 C181.93782227 49.35595703 183.15469727 49.32373047 184.40844727 49.29052734 C192.57381331 49.30310603 199.10104386 52.93662978 204.96313477 58.45458984 C211.08009126 65.18324198 212.86427831 70.96352605 212.95922852 79.93505859 C212.96730026 80.66509094 212.97537201 81.39512329 212.98368835 82.14727783 C212.99749054 83.6904465 213.00822991 85.23364521 213.01611328 86.77685547 C213.02761738 88.34400472 213.04804458 89.91111528 213.07763672 91.47802734 C213.38629707 107.83875022 213.38629707 107.83875022 208.72094727 114.38818359 C206.68579102 116.44677734 206.68579102 116.44677734 204.65844727 117.82568359 C203.9868457 118.29876953 203.31524414 118.77185547 202.62329102 119.25927734 C199.48911947 121.11918613 196.90866348 121.51452564 193.34486866 121.52519798 C191.99523524 121.5328098 191.99523524 121.5328098 190.6183365 121.54057539 C189.62866732 121.54107314 188.63899814 121.5415709 187.61933899 121.54208374 C186.0436261 121.54865712 186.0436261 121.54865712 184.43608063 121.5553633 C180.8986288 121.56877078 177.36120189 121.57493455 173.82373047 121.58105469 C171.29442736 121.58895409 168.76512537 121.59722294 166.23582458 121.60583496 C158.6329722 121.62980736 151.03012103 121.64498528 143.42724279 121.65789503 C141.27967817 121.66160735 139.13211421 121.66558055 136.98455024 121.66964769 C123.64703404 121.69488454 110.30951681 121.71693655 96.971982 121.72937584 C93.88285124 121.73230551 90.79372052 121.73526718 87.70458984 121.73828125 C86.55291441 121.73940033 86.55291441 121.73940033 85.3779728 121.74054201 C72.94190119 121.75319412 60.5059726 121.78641556 48.06996784 121.82808308 C35.30069315 121.87051635 22.53149166 121.89407247 9.76214665 121.8992964 C2.59321346 121.90270895 -4.57549621 121.91444539 -11.74435997 121.94739914 C-18.48886454 121.97835149 -25.23291161 121.98380875 -31.97749901 121.97201538 C-34.45265657 121.97179424 -36.92783196 121.98013229 -39.4029274 121.99766922 C-42.78326425 122.02031596 -46.16218242 122.01208505 -49.54252625 121.9961853 C-51.0102996 122.01700843 -51.0102996 122.01700843 -52.50772494 122.03825223 C-59.76324353 121.95421916 -64.52814185 119.93903061 -69.80303115 114.94549024 C-76.14247355 107.93136054 -75.68149147 99.70284761 -75.70458984 90.81298828 C-75.71644815 88.6571959 -75.76565762 86.50430764 -75.81616211 84.34912109 C-75.91307594 75.99897248 -75.0225472 69.50988279 -70.27905273 62.38818359 C-69.38186523 61.02693359 -69.38186523 61.02693359 -68.46655273 59.63818359 C-63.37762317 54.40385604 -57.60984137 49.53165406 -50.01123047 49.32714844 C-48.8115564 49.3380249 -48.8115564 49.3380249 -47.58764648 49.34912109 C-46.77996826 49.35476074 -45.97229004 49.36040039 -45.14013672 49.36621094 C-44.525979 49.37346191 -43.91182129 49.38071289 -43.27905273 49.38818359 C-43.31047363 48.52036255 -43.31047363 48.52036255 -43.3425293 47.63500977 C-43.77013942 34.03403083 -44.04738915 22.24054044 -35.04077148 11.16943359 C-24.90102346 0.91727151 -13.6691807 -0.05656399 0 0 Z " fill="#060605" transform="translate(673.279052734375,907.61181640625)"/>
<path d="M0 0 C2.62468615 1.9897362 5.22961917 4.00016762 7.82299805 6.03027344 C13.98615501 10.82872495 20.41679601 15.21115127 26.89208984 19.57470703 C28.99421288 20.99608696 31.0853958 22.43252273 33.17578125 23.87109375 C64.61708522 45.35993561 99.88257449 64.7392764 136.046875 76.96875 C138.95286202 77.98353912 141.7413954 79.14569185 144.5625 80.375 C167.37234638 90.0044866 191.89643071 96.1981843 216.0546875 101.36425781 C219.15555361 102.03357606 222.24925143 102.73156117 225.34375 103.4296875 C240.08826782 106.68666645 254.87069876 109.16430773 269.8125 111.3125 C270.69933472 111.44155731 271.58616943 111.57061462 272.49987793 111.70358276 C282.57406246 113.15868824 292.55534968 114.3123472 302.72753906 114.75976562 C311.45304511 115.40031307 319.62238262 119.27089509 325.60546875 125.734375 C329.89750525 131.42352602 331.24959715 136.9531634 331.25396729 144.0715332 C331.25708727 144.76038636 331.26020725 145.44923952 331.26342177 146.15896702 C331.27136721 148.45632676 331.26509079 150.75341976 331.25878906 153.05078125 C331.26150126 154.70427606 331.26506348 156.35776966 331.26940918 158.01126099 C331.27853099 162.50507947 331.27498373 166.99880609 331.26865101 171.49262619 C331.26356293 176.23410019 331.26829273 180.97556668 331.27142334 185.71704102 C331.27506618 193.71339306 331.27026739 201.70970825 331.26074219 209.70605469 C331.24997611 218.84744578 331.25329425 227.98874682 331.264395 237.13013554 C331.27360316 245.03907297 331.27468504 252.94798392 331.26951766 260.85692501 C331.26645539 265.55181778 331.26582195 270.24666902 331.27259064 274.94155884 C331.32004787 313.07811714 330.02003828 350.96110776 324.13305664 388.69116211 C323.6874696 391.56269591 323.25847465 394.43640454 322.83007812 397.31054688 C321.08230115 408.75759962 318.68753093 419.82195059 315.56021118 430.9682312 C314.7727332 433.82424916 314.06931917 436.6982138 313.375 439.578125 C310.70665484 450.59432365 307.76721492 461.30401681 304 472 C303.5806275 473.28385398 303.16536536 474.56905679 302.75390625 475.85546875 C300.62243494 482.49815299 298.26470243 488.86052172 295.26171875 495.16015625 C293.25373629 499.67967095 291.70225429 504.35231963 290.11328125 509.03125 C289 512 289 512 287 515 C282.99264783 514.39889717 280.44530629 512.33397972 277.25 509.9375 C276.26515625 509.20402344 275.2803125 508.47054687 274.265625 507.71484375 C273.51796875 507.14894531 272.7703125 506.58304688 272 506 C272.606975 502.24349917 273.71087883 499.2264698 275.375 495.8125 C277.40818431 491.46569217 278.97798877 487.2114832 280.2265625 482.58203125 C280.84501687 480.51739317 281.57648169 478.48673558 282.34375 476.47265625 C286.12647968 466.5235431 288.94120415 456.18866222 292 446 C292.25604004 445.14986328 292.51208008 444.29972656 292.77587891 443.42382812 C296.37132174 431.37200685 298.96438758 419.16110059 301.39331055 406.82568359 C301.86590671 404.62454555 302.40912633 402.43853007 302.97973633 400.26074219 C304.13323206 395.6908342 304.80721899 391.09672346 305.4375 386.4296875 C305.56310303 385.51333527 305.68870605 384.59698303 305.81811523 383.65286255 C306.08267428 381.70835768 306.34475156 379.76351373 306.60449219 377.81835938 C306.98883669 374.95807705 307.38843976 372.1002281 307.7890625 369.2421875 C311.78392405 340.01847073 312.29991672 310.94481835 312.23571944 281.50781083 C312.22677634 276.52455187 312.22869926 271.54129453 312.2290802 266.55802917 C312.22815274 258.22869258 312.21958234 249.89939312 312.20581055 241.57006836 C312.18995465 231.94466987 312.18481771 222.31931148 312.1855461 212.69390088 C312.1862202 202.39264819 312.17930357 192.09141086 312.1700995 181.7901628 C312.16796993 178.83367272 312.16725866 175.87718513 312.16686058 172.92069435 C312.1658589 168.29684221 312.15977681 163.67302388 312.14969444 159.04918289 C312.14676849 157.35239684 312.14554427 155.65560691 312.14612198 153.95881844 C312.14661097 151.64929262 312.14097466 149.33986228 312.13371277 147.03034973 C312.13203692 145.73732343 312.13036108 144.44429712 312.12863445 143.1120882 C312.14239526 139.96588788 312.14239526 139.96588788 311 137 C308.52869082 135.84478498 308.52869082 135.84478498 306 135 C305.67 134.67 305.34 134.34 305 134 C302.2894713 133.69671735 299.59310128 133.4509235 296.875 133.23828125 C295.13394943 133.09140312 293.39298592 132.94349013 291.65209961 132.79467773 C290.26932327 132.67755936 290.26932327 132.67755936 288.85861206 132.55807495 C270.07747887 130.94464306 251.767131 128.35277485 233.29248047 124.64892578 C229.04061231 123.81091113 224.77425401 123.08737567 220.5 122.375 C206.10458791 119.84070023 192.0316385 116.05481436 178 112 C177.20190918 111.77054687 176.40381836 111.54109375 175.58154297 111.3046875 C157.7081742 106.14024517 140.17857743 100.15834899 123 93 C122.05350586 92.60796387 121.10701172 92.21592773 120.13183594 91.81201172 C97.56405874 82.44641893 76.13443844 72.2713806 55 60 C54.05656738 59.45794922 53.11313477 58.91589844 52.14111328 58.35742188 C34.30959263 48.11161814 17.51653454 36.70902208 1.00097656 24.47705078 C-2.88123695 21.6113368 -6.78278753 18.77244434 -10.6875 15.9375 C-11.45457275 15.37675781 -12.22164551 14.81601563 -13.01196289 14.23828125 C-14.09465454 13.45324219 -14.09465454 13.45324219 -15.19921875 12.65234375 C-15.83690186 12.18820068 -16.47458496 11.72405762 -17.1315918 11.24584961 C-21.23356815 8.51066271 -24.52657912 7.30077793 -29.46484375 7.4453125 C-34.8680396 8.62752176 -38.82806953 12.55362265 -43 16 C-45.32836574 17.88118702 -47.66493666 19.75213604 -50 21.625 C-50.62777344 22.1307959 -51.25554687 22.6365918 -51.90234375 23.15771484 C-117.64784041 75.91422794 -194.95448598 106.48244592 -277 123 C-277.76310486 123.15435516 -278.52620972 123.30871033 -279.31243896 123.46774292 C-299.52044145 127.53801182 -319.55086405 130.11437743 -340.09667969 131.78173828 C-343.45397322 132.05811531 -346.80884609 132.35584788 -350.1640625 132.65625 C-351.18166656 132.73242554 -352.19927063 132.80860107 -353.24771118 132.88708496 C-358.62735362 133.3809778 -362.15568378 133.83806221 -366 138 C-367.48726186 140.97452371 -367.12602527 143.65253682 -367.12698364 146.9725647 C-367.12932363 148.06219594 -367.12932363 148.06219594 -367.13171089 149.17383993 C-367.13571699 151.62193572 -367.13253232 154.06997009 -367.12939453 156.51806641 C-367.1307491 158.26937395 -367.13252935 160.0206812 -367.13470459 161.77198792 C-367.13928238 166.5486662 -367.1374853 171.32532298 -367.1343255 176.10200167 C-367.13179174 181.1252425 -367.13414339 186.1484815 -367.13571167 191.17172241 C-367.13753542 199.64085213 -367.13512694 208.10997316 -367.13037109 216.57910156 C-367.12498071 226.28854224 -367.12665172 235.99796175 -367.1321975 245.70740187 C-367.13678639 254.08409573 -367.13734981 262.46078333 -367.13475883 270.83747804 C-367.13322056 275.82062713 -367.1329322 280.80376642 -367.13629532 285.78691483 C-367.14691169 304.14826595 -367.12534585 322.50249626 -366.57373047 340.85693359 C-366.53762728 342.10596781 -366.50152409 343.35500202 -366.46432686 344.64188576 C-366.04636589 356.85385479 -364.71231295 368.908156 -363 381 C-362.83564453 382.17014648 -362.67128906 383.34029297 -362.50195312 384.54589844 C-361.99344805 388.11598784 -361.47030771 391.6834606 -360.9375 395.25 C-360.77531982 396.33974121 -360.61313965 397.42948242 -360.44604492 398.55224609 C-360.28724854 399.57141113 -360.12845215 400.59057617 -359.96484375 401.640625 C-359.8268335 402.53297852 -359.68882324 403.42533203 -359.54663086 404.34472656 C-358.93174872 407.33153233 -357.97073377 410.11034713 -357 413 C-356.48884683 415.1324934 -356.00878525 417.27260144 -355.5546875 419.41796875 C-355.2863208 420.65973877 -355.0179541 421.90150879 -354.74145508 423.1809082 C-354.53016464 424.16083237 -354.53016464 424.16083237 -354.31460571 425.16055298 C-351.85587438 436.49734412 -349.1192298 447.6887984 -345.8125 458.8125 C-345.49200684 459.89490967 -345.17151367 460.97731934 -344.84130859 462.0925293 C-342.88009034 468.54411808 -340.58988228 474.77680519 -338 481 C-337.35177219 482.62404631 -336.70566758 484.24894307 -336.0625 485.875 C-323.2215394 517.95222315 -307.62530994 556.86194526 -284.3190918 582.8762207 C-282.46208698 585.86605689 -282.75131991 588.02639812 -282.92578125 591.515625 C-282.98056641 592.76601563 -283.03535156 594.01640625 -283.09179688 595.3046875 C-283.16462891 596.60664062 -283.23746094 597.90859375 -283.3125 599.25 C-283.37373047 600.56742188 -283.43496094 601.88484375 -283.49804688 603.2421875 C-283.65129413 606.4957446 -283.81915068 609.74787942 -284 613 C-284.66 613 -285.32 613 -286 613 C-287.0859375 611.62890625 -287.0859375 611.62890625 -288.375 609.5625 C-290.84997392 605.71187309 -293.43193275 601.96863413 -296.10058594 598.25170898 C-303.14852162 588.41913888 -309.68344431 578.31543146 -316 568 C-316.43022461 567.29939453 -316.86044922 566.59878906 -317.30371094 565.87695312 C-323.77620059 555.27641973 -329.56023068 544.35572897 -335.23828125 533.3125 C-337.38319749 529.14498683 -339.62403916 525.04576433 -341.95361328 520.97875977 C-343.32640368 518.38275739 -344.29107791 515.7108255 -345.26171875 512.9453125 C-346.00858227 510.9773864 -346.89687134 509.17523108 -347.875 507.3125 C-350.724965 501.73087044 -352.85090627 495.8786157 -355 490 C-355.26184082 489.28827637 -355.52368164 488.57655273 -355.79345703 487.84326172 C-362.81807428 468.6333353 -368.53353754 449.13258952 -372.859375 429.140625 C-373.65784793 425.45388399 -374.55024179 421.80210566 -375.48828125 418.1484375 C-385.54153491 378.21556418 -386.64023352 336.61818576 -386.57023358 295.67530632 C-386.56501499 291.21792843 -386.57249834 286.76060319 -386.57970566 282.30323076 C-386.59648114 271.80057385 -386.59335201 261.29806314 -386.57641602 250.79541016 C-386.55934166 240.00528578 -386.57558763 229.2155615 -386.6076389 218.42548037 C-386.63433813 209.07845236 -386.64161502 199.73154896 -386.63312382 190.38448668 C-386.62821705 184.8358078 -386.63029454 179.28737176 -386.65091133 173.73872375 C-386.66928576 168.55062803 -386.66328833 163.36311529 -386.63871193 158.17505074 C-386.63371835 156.27962597 -386.63715587 154.38415639 -386.64986038 152.48876762 C-386.77588384 132.07027155 -386.77588384 132.07027155 -378.98098087 123.87807465 C-372.82385503 118.05121355 -366.93666124 115.63182424 -358.5 115 C-356.6861967 114.83595093 -354.8723947 114.67188756 -353.05859375 114.5078125 C-349.99301095 114.24667586 -346.92707138 113.99426188 -343.85986328 113.75292969 C-254.67796258 106.62478495 -158.46456266 78.68688747 -86 25 C-84.71340653 24.06479873 -83.42578964 23.13100221 -82.13671875 22.19921875 C-75.34503119 17.26138223 -68.66264836 12.21481464 -62.07910156 7.00268555 C-58.23064758 3.95827964 -54.35618807 0.95355125 -50.4375 -2 C-49.50808594 -2.70125 -48.57867188 -3.4025 -47.62109375 -4.125 C-31.29040371 -15.80716277 -15.27859351 -10.88052635 0 0 Z " fill="#070707" transform="translate(651,159)"/>
<path d="M0 0 C15.78277862 13.80406432 27.57729322 31.68744336 29.11865234 53.14160156 C29.77298278 76.64197815 26.45501819 97.86027251 10.30078125 116.08203125 C8.85618719 117.55397562 7.39907066 119.01380897 5.92578125 120.45703125 C5.36503906 121.07578125 4.80429687 121.69453125 4.2265625 122.33203125 C-6.72730424 134.21419178 -20.98841293 139.10299786 -36.07421875 143.45703125 C-36.67919189 143.63427734 -37.28416504 143.81152344 -37.9074707 143.99414062 C-51.58400317 146.91591026 -68.08207899 145.32108358 -81.07421875 140.45703125 C-82.1003125 140.10640625 -83.12640625 139.75578125 -84.18359375 139.39453125 C-103.11319614 132.33271067 -117.47656845 117.85572736 -127.07421875 100.45703125 C-127.59757812 99.61140625 -128.1209375 98.76578125 -128.66015625 97.89453125 C-131.29097388 93.35964119 -132.52471842 88.87541758 -133.63671875 83.76953125 C-134.50466184 79.48949197 -134.50466184 79.48949197 -136.07421875 75.45703125 C-136.31901204 71.62920478 -136.25943615 67.79179498 -136.26171875 63.95703125 C-136.27396484 62.90515625 -136.28621094 61.85328125 -136.29882812 60.76953125 C-136.33914539 39.0519662 -127.16336483 20.79517314 -112.07421875 5.45703125 C-111.31367188 4.68359375 -110.553125 3.91015625 -109.76953125 3.11328125 C-79.96447745 -25.42139321 -31.48765287 -26.04633039 0 0 Z " fill="#F6FA06" transform="translate(461.07421875,829.54296875)"/>
<path d="M0 0 C4.4444644 1.49533382 7.87160366 3.94106984 11.5625 6.75 C17.56922596 11.2398152 23.65533239 15.59392332 29.8125 19.875 C36.25155455 24.35891566 42.65144299 28.88882415 49 33.5 C58.57993981 40.45733566 68.28208473 47.2372492 78 54 C77.36708923 57.40388988 76.07247858 59.66272525 74.11328125 62.5 C73.21101807 63.8152063 73.21101807 63.8152063 72.29052734 65.15698242 C71.63777832 66.09517822 70.9850293 67.03337402 70.3125 68 C69.30243896 69.46626831 69.30243896 69.46626831 68.27197266 70.9621582 C63.26355421 78.21950525 58.20737207 85.44383649 53.13867188 92.65917969 C47.52044497 100.66118536 42.00549805 108.73211149 36.49658203 116.80957031 C33.83071197 120.71139514 31.14757957 124.60135777 28.4621582 128.48974609 C25.88246127 132.23382166 23.32745059 135.99343292 20.79302979 139.76834106 C19.25014002 142.0658421 17.70322646 144.36062358 16.15637207 146.65545654 C15.38956783 147.79570651 14.62481309 148.93733759 13.86218262 150.0803833 C12.78821127 151.68980927 11.70674314 153.29422486 10.625 154.8984375 C9.99851562 155.83349121 9.37203125 156.76854492 8.7265625 157.73193359 C7 160 7 160 4 162 C2.93265625 161.22398437 1.8653125 160.44796875 0.765625 159.6484375 C-8.27212613 153.09195986 -17.36424513 146.62334545 -26.52539062 140.24047852 C-32.8899516 135.79798044 -39.18558734 131.26701019 -45.46362305 126.70336914 C-51.17028511 122.56771009 -56.95101557 118.55015784 -62.78808594 114.60083008 C-66.31800429 112.20314093 -69.70398565 109.71842707 -73 107 C-71.4099802 102.29318002 -68.83077361 98.58702018 -66 94.5625 C-65.51015625 93.85802734 -65.0203125 93.15355469 -64.515625 92.42773438 C-60.97670517 87.35193828 -57.38350083 82.31520714 -53.77148438 77.29125977 C-50.62165741 72.90072341 -47.55039042 68.46006884 -44.5 64 C-40.76671007 58.54305458 -36.97273457 53.13970947 -33.11450195 47.77026367 C-21.82966627 32.02210423 -10.90665323 16.01135242 0 0 Z " fill="#FCFCFC" transform="translate(801,683)"/>
<path d="M0 0 C1.42469637 -0.00551503 1.42469637 -0.00551503 2.87817448 -0.01114148 C6.07480952 -0.02219334 9.27141206 -0.02602469 12.46806335 -0.02983093 C14.75430912 -0.03609436 17.04055386 -0.04274105 19.32679749 -0.04974365 C25.54789514 -0.06716256 31.7689851 -0.07770749 37.9901011 -0.08594918 C41.87454821 -0.09109663 45.75899292 -0.09717242 49.64343834 -0.10346031 C60.39823453 -0.12032964 71.15302701 -0.13496528 81.90783405 -0.14220905 C84.69825555 -0.14411894 87.48867704 -0.14603927 90.27909851 -0.147995 C91.31941282 -0.14872061 91.31941282 -0.14872061 92.38074359 -0.14946087 C103.61860666 -0.15776328 114.85636336 -0.18310459 126.09417997 -0.21557567 C137.6317375 -0.24864113 149.16922498 -0.26632446 160.70683163 -0.26985329 C167.18485728 -0.27220738 173.66271473 -0.28121475 180.14069557 -0.30631447 C186.23345529 -0.32954026 192.32593542 -0.33385043 198.41872787 -0.32355309 C200.65606171 -0.32305631 202.89340906 -0.32941835 205.13070107 -0.34310913 C208.1831747 -0.36074463 211.23463585 -0.35376261 214.28710938 -0.34057617 C215.17417692 -0.35154542 216.06124447 -0.36251466 216.97519284 -0.37381631 C222.42172541 -0.31694086 225.50825223 0.53138005 229.83403015 4.14717102 C235.55634795 10.48811777 235.01677497 15.98727463 235.02153015 24.14717102 C235.03377625 25.25318665 235.04602234 26.35920227 235.05863953 27.49873352 C235.06057312 28.5583429 235.06250671 29.61795227 235.0644989 30.70967102 C235.06860779 31.68033508 235.07271667 32.65099915 235.07695007 33.65107727 C234.83403015 36.14717102 234.83403015 36.14717102 232.83403015 39.14717102 C230.97851515 39.52206784 230.97851515 39.52206784 228.6735611 39.52190113 C227.79648011 39.52910767 226.91939912 39.53631422 226.01573992 39.54373914 C225.04630182 39.53636486 224.07686372 39.52899057 223.07804871 39.52139282 C221.54014467 39.52735443 221.54014467 39.52735443 219.97117186 39.53343648 C216.51321027 39.54311109 213.05565256 39.53121009 209.59770203 39.51948547 C207.12777554 39.52191173 204.65785003 39.52562943 202.18792725 39.5305481 C196.16224578 39.53900218 190.13672433 39.53342198 184.11106122 39.52128515 C177.09945652 39.50768678 170.08788052 39.50930109 163.07626599 39.51141848 C150.56890107 39.51461077 138.06159304 39.50292696 125.554245 39.48335266 C113.40741747 39.46434747 101.26065664 39.45726481 89.11381531 39.46284485 C75.89857901 39.4688977 62.68337207 39.46873465 49.46813822 39.45735902 C48.05995592 39.45615168 46.65177361 39.45494569 45.24359131 39.45374107 C44.55067103 39.45313753 43.85775075 39.452534 43.14383289 39.45191217 C38.25206402 39.4480269 33.36030605 39.448429 28.46853638 39.45032692 C21.88913505 39.45266616 15.30980766 39.44414665 8.73042107 39.42826653 C6.309202 39.4240081 3.88797423 39.4231835 1.46675301 39.42595673 C-1.82559001 39.42915676 -5.11767223 39.42015192 -8.4099884 39.40786743 C-9.86414555 39.41353642 -9.86414555 39.41353642 -11.34767962 39.41931993 C-12.2247606 39.41348773 -13.10184159 39.40765554 -14.00550079 39.40164661 C-14.76613563 39.40077984 -15.52677047 39.39991306 -16.31045485 39.39902002 C-18.16596985 39.14717102 -18.16596985 39.14717102 -20.16596985 37.14717102 C-20.65539827 32.74971836 -20.53638794 28.31871611 -20.54096985 23.89717102 C-20.56546204 22.66869446 -20.58995422 21.4402179 -20.6151886 20.17451477 C-20.65167417 8.94912165 -20.65167417 8.94912165 -16.16596985 4.14717102 C-11.19044741 -0.22525779 -6.34969516 -0.0013098 0 0 Z " fill="#FCFCFC" transform="translate(635.1659698486328,972.8528289794922)"/>
<path d="M0 0 C4.3374392 1.54147178 8.07781835 3.78629027 11.9375 6.25 C12.62569824 6.68473633 13.31389648 7.11947266 14.02294922 7.56738281 C16.35153705 9.04039297 18.67591675 10.51989404 21 12 C22.72258015 13.09386985 24.44523892 14.1876159 26.16796875 15.28125 C30.828106 18.24211534 35.48463635 21.20860834 40.14013672 24.17675781 C53.96611731 32.99120403 67.80468428 41.78506946 81.67333984 50.53222656 C86.41101032 53.52098573 91.14644325 56.51328922 95.88232422 59.50488281 C99.80235106 61.98094327 103.72285919 64.4562335 107.64453125 66.9296875 C116.31311515 72.3981782 124.97369093 77.87921679 133.625 83.375 C134.52516846 83.94589355 135.42533691 84.51678711 136.3527832 85.10498047 C138.90681259 86.72908365 141.45521216 88.36145854 144 90 C144.83450684 90.53592773 145.66901367 91.07185547 146.52880859 91.62402344 C147.32367676 92.14254883 148.11854492 92.66107422 148.9375 93.1953125 C149.64003906 93.65180176 150.34257813 94.10829102 151.06640625 94.57861328 C156.78045298 98.77901481 160.76383208 104.61722282 162.6875 111.4375 C163.71843047 119.89112988 162.23412238 127.1610979 157.45703125 134.30859375 C152.85546409 139.87891189 147.67107515 144.13229133 140.5625 145.8125 C139.386875 145.874375 138.21125 145.93625 137 146 C135.93265625 146.05800781 135.93265625 146.05800781 134.84375 146.1171875 C125.23365701 146.413389 119.28273506 144.20424085 112 138 C111.45923828 137.54125488 110.91847656 137.08250977 110.36132812 136.60986328 C102.91730617 130.27763685 95.61629077 123.79651378 88.41015625 117.1953125 C85.66994671 114.69936799 82.88154047 112.26483959 80.08203125 109.8359375 C77.58456643 107.63367021 75.138723 105.37859965 72.6875 103.125 C69.06476095 99.81663086 65.38307109 96.63987642 61.5625 93.5625 C56.43749154 89.42588603 51.60436845 85.03680784 46.77734375 80.5625 C43.8895984 77.89813861 40.95030616 75.30619297 37.98046875 72.734375 C35.68866845 70.72735462 33.44003248 68.67597149 31.1875 66.625 C27.81059018 63.57141133 24.36782868 60.65570795 20.8125 57.8125 C15.4863278 53.51088144 10.53834749 48.87576419 5.57006836 44.17333984 C0.9985785 39.86945224 -3.69590617 35.8482358 -8.6328125 31.96484375 C-11.25453503 29.78872753 -13.62383556 27.4395852 -16 25 C-14.34364039 19.80317174 -11.15988791 15.74220358 -8 11.375 C-6.91645732 9.86212908 -5.83311584 8.34911404 -4.75 6.8359375 C-4.27046875 6.17126465 -3.7909375 5.5065918 -3.296875 4.82177734 C-2.16771206 3.23559251 -1.08002725 1.62004087 0 0 Z " fill="#FBFBFB" transform="translate(890,810)"/>
<path d="M0 0 C0.68421782 -0.00297112 1.36843563 -0.00594224 2.07338732 -0.0090034 C4.37719944 -0.01770851 6.6809597 -0.01920017 8.98478699 -0.02069092 C10.6321219 -0.02531783 12.27945575 -0.03034232 13.92678833 -0.03573608 C18.41033329 -0.04887478 22.89386327 -0.05530796 27.37742448 -0.05974674 C30.17723369 -0.06267526 32.97703879 -0.06677965 35.77684593 -0.07125092 C44.53286528 -0.08493006 53.28887524 -0.09459453 62.04490453 -0.09845281 C72.15963402 -0.10293397 82.27422839 -0.12048281 92.38891679 -0.1494534 C100.2021369 -0.17105682 108.01531897 -0.18115638 115.82856864 -0.18249393 C120.4973559 -0.18354297 125.16601623 -0.18947173 129.83477211 -0.20731354 C134.22685328 -0.22377096 138.61871178 -0.2259611 143.01081276 -0.21717453 C144.62289017 -0.21640289 146.23497944 -0.2207636 147.84702682 -0.23063278 C150.04810497 -0.24331774 152.24839042 -0.23749493 154.44946289 -0.22705078 C155.68114606 -0.22851734 156.91282923 -0.2299839 158.18183613 -0.2314949 C163.35821184 0.36394705 166.42998958 2.76108499 169.66520691 6.70294189 C170.16536316 7.30235596 170.66551941 7.90177002 171.18083191 8.51934814 C176.5559172 15.57840003 173.41520691 18.81620914 173.41520691 31.14044189 C110.05520691 31.14044189 46.69520691 31.14044189 -18.58479309 31.14044189 C-18.58479309 10.17105414 -18.58479309 10.17105414 -13.05354309 4.59747314 C-8.49796688 0.61134396 -5.94498765 0.01437106 0 0 Z " fill="#F4F706" transform="translate(664.5847930908203,924.8595581054688)"/>
<path d="M0 0 C1.37825702 -0.01169993 1.37825702 -0.01169993 2.78435761 -0.02363622 C5.86462608 -0.04358702 8.9436633 -0.02777922 12.02394104 -0.01205444 C14.23167137 -0.01882921 16.43939604 -0.02773155 18.64710999 -0.03860474 C24.64509998 -0.06142237 30.64266052 -0.05255092 36.64065814 -0.03670931 C42.91459493 -0.02406165 49.18849464 -0.03578742 55.46243286 -0.04364014 C66.67533775 -0.05332379 77.88806543 -0.03777132 89.10092861 -0.01234345 C99.26367682 0.0099898 109.42613941 0.00611967 119.58888245 -0.01693726 C131.39383494 -0.04370749 143.19864912 -0.05364784 155.00363785 -0.03887594 C161.25136012 -0.0310783 167.49888573 -0.03004852 173.74659538 -0.04655838 C179.62117221 -0.06099732 185.49520956 -0.05099115 191.36972809 -0.0220871 C193.5264172 -0.01547301 195.68315168 -0.01737939 197.83982277 -0.02840042 C200.78298917 -0.04205438 203.72442453 -0.02494106 206.66748047 0 C207.52205619 -0.01115361 208.37663191 -0.02230722 209.25710386 -0.03379881 C213.40927828 0.03450459 216.11249542 0.37729766 219.43502903 2.9871006 C221.89723206 5.63491821 221.89723206 5.63491821 222.52223206 8.63491821 C221.76695628 12.26024195 220.4588287 13.99798049 217.89723206 16.63491821 C214.55174288 18.3076628 210.78327166 17.78671514 207.10380554 17.78881836 C206.18203612 17.79320061 205.2602667 17.79758287 204.31056488 17.80209792 C201.20289594 17.81551809 198.09525538 17.82167194 194.98756409 17.82778931 C192.76718517 17.8356876 190.54680754 17.84395638 188.32643127 17.85256958 C181.01931489 17.87881649 173.71219269 17.89409773 166.40504456 17.90835571 C163.8933957 17.91371389 161.38174689 17.91909139 158.87009811 17.92448807 C148.42673599 17.94611877 137.98337401 17.96500913 127.53999519 17.97611046 C124.82948426 17.97904024 122.11897337 17.98200189 119.40846252 17.98501587 C118.73476383 17.98576192 118.06106514 17.98650797 117.36695133 17.98727663 C106.44773801 17.99993661 95.52868728 18.03316822 84.60955001 18.0748177 C73.40426752 18.11720909 62.19906516 18.14039429 50.99369323 18.14603102 C44.70011155 18.1496928 38.40680555 18.16180214 32.11330032 18.19413376 C26.19533943 18.22410034 20.27782271 18.23056695 14.35980225 18.21875 C12.18451155 18.21852832 10.00920092 18.22691063 7.83398056 18.24440384 C4.87032054 18.26694568 1.90829171 18.25887016 -1.05537415 18.24291992 C-2.35488221 18.26374305 -2.35488221 18.26374305 -3.68064296 18.28498685 C-9.47775575 18.20779741 -9.47775575 18.20779741 -12.63307381 15.31566811 C-14.58823801 11.74941163 -14.74727803 9.64520321 -14.10276794 5.63491821 C-9.99058397 0.0319111 -6.45649017 -0.08404835 0 0 Z " fill="#070707" transform="translate(473.10276794433594,678.3650817871094)"/>
<path d="M0 0 C6.38402059 3.33710167 12.09227851 8.01484268 17.85546875 12.30859375 C21.75736414 15.20159079 25.73673896 17.96748462 29.75 20.703125 C35.87947784 24.88561841 41.95945856 29.13079943 48.01147461 33.42456055 C52.22652188 36.41003975 56.45974518 39.36694736 60.7109375 42.30078125 C61.72148193 42.99921143 62.73202637 43.6976416 63.77319336 44.41723633 C65.74064896 45.77560092 67.71008819 47.13109877 69.68188477 48.4831543 C86.97562906 60.43357309 86.97562906 60.43357309 89.5625 65.703125 C90.0759938 71.55695429 90.37152887 76.85745674 86.625 81.703125 C82.02613826 85.98842798 77.79098667 86.99416262 71.578125 86.8125 C66.71271439 85.82816837 63.45325047 82.72440682 59.66601562 79.66113281 C55.97716424 76.78688601 52.09307032 74.17769318 48.25 71.515625 C46.50077269 70.29502915 44.75207605 69.07367246 43.00390625 67.8515625 C42.14168457 67.24924805 41.27946289 66.64693359 40.39111328 66.02636719 C34.56227814 61.94742686 28.75623808 57.83615039 22.94726562 53.72900391 C20.8572021 52.2530566 18.76486911 50.78038178 16.671875 49.30859375 C9.15130252 44.01765594 1.65315338 38.6963326 -5.8125 33.328125 C-6.55491943 32.79646729 -7.29733887 32.26480957 -8.06225586 31.71704102 C-21.37199263 22.11754733 -21.37199263 22.11754733 -22.53125 16.1875 C-22.77903539 10.44713836 -21.39722018 7.35590023 -17.828125 2.89453125 C-12.94108452 -1.77954187 -6.25433934 -2.1614261 0 0 Z " fill="#F5F806" transform="translate(825.125,641.734375)"/>
<path d="M0 0 C1.14089741 0.8841495 2.26803284 1.78626429 3.3828125 2.703125 C4.68371489 3.71414061 5.98722754 4.72180409 7.29296875 5.7265625 C8.31608154 6.52078613 8.31608154 6.52078613 9.35986328 7.33105469 C13.08086765 10.14105162 16.95428369 12.72332308 20.8203125 15.328125 C27.92826852 20.14912983 34.92839634 25.09688461 41.87597656 30.14575195 C46.91475159 33.80675417 51.97922083 37.42774606 57.0703125 41.015625 C57.75843018 41.50248779 58.44654785 41.98935059 59.15551758 42.4909668 C62.81975841 45.07912895 66.50200204 47.63640119 70.2109375 50.16015625 C70.98236084 50.6905249 71.75378418 51.22089355 72.54858398 51.76733398 C74.01846779 52.77721762 75.49421617 53.77864025 76.97680664 54.76977539 C81.82220648 58.11545046 85.78425931 61.46304491 87.0390625 67.515625 C86.96681045 73.15128453 86.37352519 76.55050777 82.5078125 80.953125 C78.29432578 84.65588606 74.35225878 85.36100709 68.88427734 85.28808594 C64.78321486 84.71004426 62.04503154 82.55158451 58.8203125 80.078125 C58.13098633 79.57708252 57.44166016 79.07604004 56.73144531 78.55981445 C55.31739457 77.53012959 53.9095974 76.49179997 52.50830078 75.44482422 C50.16725472 73.69918211 47.79362306 72.00410406 45.41186523 70.31469727 C43.71007846 69.10674264 42.01511358 67.88960695 40.3203125 66.671875 C35.82697087 63.4554873 31.29027313 60.30151086 26.7578125 57.140625 C19.5619155 52.11885668 12.41489903 47.03695842 5.32861328 41.86157227 C1.29238219 38.92405819 -2.78183134 36.06318101 -6.921875 33.2734375 C-7.829375 32.65662109 -8.736875 32.03980469 -9.671875 31.40429688 C-11.42146221 30.21888815 -13.17891095 29.04497028 -14.9453125 27.88476562 C-20.58738954 24.04577955 -24.37662485 20.62044227 -26.0234375 13.73046875 C-25.93690943 8.63612835 -24.74332233 5.81933939 -21.4921875 1.953125 C-15.31126572 -3.76422765 -7.223342 -4.93983388 0 0 Z " fill="#F5F806" transform="translate(717.4921875,802.046875)"/>
<path d="M0 0 C0.84039609 -0.00694553 1.68079218 -0.01389106 2.54665482 -0.02104706 C5.36731956 -0.03936733 8.18714799 -0.02903884 11.00784302 -0.01878357 C13.02823518 -0.02583957 15.04862206 -0.03458323 17.06900024 -0.04489136 C22.56081293 -0.06743256 28.05233805 -0.06443428 33.54417944 -0.05556989 C38.12677987 -0.05046656 42.70932595 -0.05774735 47.29192078 -0.06504196 C58.10254976 -0.08205649 68.91303765 -0.07846001 79.72366333 -0.06175232 C90.88002334 -0.04483332 102.03599201 -0.06065917 113.19230926 -0.0929752 C122.76695621 -0.11965998 132.34148125 -0.12694997 141.91616166 -0.11846012 C147.63630296 -0.1135272 153.35620882 -0.11576624 159.07632065 -0.13624763 C164.45595502 -0.15458681 169.83502613 -0.14866725 175.21463013 -0.12404823 C177.18910566 -0.11903457 179.16362397 -0.12254445 181.13806534 -0.13519669 C183.83390375 -0.15110489 186.52788239 -0.13619799 189.22363281 -0.11352539 C190.39562754 -0.13127898 190.39562754 -0.13127898 191.59129894 -0.14939123 C195.51900376 -0.08228513 198.18395112 0.45846802 201.26709175 2.83126926 C203.73880005 5.5146637 203.73880005 5.5146637 203.80130005 9.0771637 C202.80942879 12.28615894 202.09229875 14.161165 199.73880005 16.5146637 C195.99915016 17.76121366 192.51804098 17.66609735 188.62236023 17.66856384 C187.36705636 17.67513722 187.36705636 17.67513722 186.08639282 17.6818434 C183.27203998 17.69523674 180.45771845 17.70141138 177.64334106 17.70753479 C175.62970844 17.7154351 173.61607722 17.72370401 171.60244751 17.73231506 C164.98254753 17.75853534 158.36264121 17.77383907 151.7427063 17.7881012 C149.46600782 17.79346018 147.18930939 17.79883769 144.91261101 17.80423355 C135.44628351 17.82585902 125.97995774 17.84459808 116.51361179 17.85585594 C102.93287104 17.87211197 89.35241563 17.90533378 75.77178246 17.96225679 C66.22948781 18.00089506 56.68726968 18.02048117 47.14489883 18.02577651 C41.44153253 18.0294373 35.73847055 18.04153647 30.03518867 18.07387924 C24.6728665 18.10385357 19.31103452 18.11030977 13.94864655 18.09849548 C11.97814804 18.09827388 10.00762747 18.10665018 8.03720665 18.12414932 C5.35161518 18.14670633 2.66782174 18.1386096 -0.01777649 18.12266541 C-0.80172316 18.13654749 -1.58566984 18.15042958 -2.39337248 18.16473234 C-6.27971957 18.10768478 -7.90455779 17.86051263 -10.74321079 15.10776711 C-13.08143754 11.11349368 -12.84318585 9.09780267 -12.26119995 4.5146637 C-9.03970354 -0.19326491 -5.27781418 -0.05534961 0 0 Z " fill="#060606" transform="translate(471.2611999511719,728.4853363037109)"/>
<path d="M0 0 C1.09014329 -0.00935994 1.09014329 -0.00935994 2.20230967 -0.01890898 C4.6384224 -0.03486829 7.0735386 -0.02222394 9.50965881 -0.00964355 C11.25581445 -0.01506344 13.00196552 -0.02218535 14.74810791 -0.03088379 C19.49197091 -0.04913735 24.2354864 -0.0420409 28.97935557 -0.02936745 C33.94182324 -0.01924869 38.90426092 -0.02863015 43.86672974 -0.03491211 C52.20186206 -0.04219247 60.53685269 -0.03259131 68.8719635 -0.0135498 C78.50938275 0.00821254 88.14646343 0.00117376 97.78387445 -0.02085543 C106.05575647 -0.03900685 114.32753655 -0.04156879 122.59943205 -0.03110075 C127.54094305 -0.02486349 132.48229492 -0.02403645 137.4237957 -0.0372467 C142.07043744 -0.04880057 146.71664279 -0.04078798 151.36323738 -0.01766968 C153.06883138 -0.01237979 154.7744621 -0.01390116 156.4800415 -0.02272034 C158.80823529 -0.03364905 161.13503017 -0.01994624 163.46313477 0 C164.76596374 0.0015081 166.06879271 0.0030162 167.41110134 0.00457001 C171.34988748 0.59046541 173.0139023 1.71048315 175.7950592 4.50793457 C176.65807251 7.25242408 176.431711 9.71469649 175.7950592 12.50793457 C173.92490826 14.9391308 172.51367575 16.1486263 169.7950592 17.50793457 C167.50074071 17.61339488 165.20327473 17.65191029 162.90655518 17.66183472 C161.83122582 17.6684081 161.83122582 17.6684081 160.73417264 17.67511427 C158.31981387 17.68852295 155.90549161 17.69468573 153.49110413 17.70080566 C151.76495192 17.70870495 150.03880138 17.71697379 148.31265259 17.72558594 C142.63362713 17.75182425 136.95459423 17.76711451 131.27552795 17.78137207 C129.32233996 17.78673084 127.36915202 17.79210835 125.41596413 17.79750443 C117.29305123 17.81913503 109.17014034 17.8378729 101.04720592 17.84912682 C89.39619198 17.86537358 77.74551114 17.89856693 66.09462279 17.95552766 C57.90773546 17.99419206 49.72093737 18.0137553 41.53396112 18.01904738 C36.64150995 18.0227054 31.74941392 18.03477449 26.85706139 18.06715012 C22.25476449 18.09716954 17.65303874 18.1035646 13.0506649 18.09176636 C11.36116917 18.09154511 9.6716474 18.0998922 7.98224258 18.1174202 C5.67564233 18.1400498 3.37112412 18.13184832 1.06451416 18.11593628 C-0.22616376 18.11924643 -1.51684168 18.12255657 -2.84663105 18.12596703 C-7.07431126 17.34794362 -8.5484839 15.81181022 -11.2049408 12.50793457 C-12.11232221 9.48145122 -11.66927212 7.75825387 -11.2049408 4.50793457 C-8.02933984 0.07098696 -5.27107903 0.00610336 0 0 Z " fill="#060606" transform="translate(470.20494079589844,778.4920654296875)"/>
<path d="M0 0 C2.89509184 1.30943104 4.94592537 2.70266501 7.17285156 4.96166992 C7.76737122 5.55956833 8.36189087 6.15746674 8.97442627 6.77348328 C9.60677185 7.41928848 10.23911743 8.06509369 10.890625 8.73046875 C11.55406921 9.39911453 12.21751343 10.06776031 12.90106201 10.75666809 C15.02218406 12.89558082 17.13652168 15.0410362 19.25 17.1875 C21.34999707 19.31528759 23.45149132 21.44153829 25.55609131 23.56477356 C26.86352544 24.88427409 28.16828143 26.20643605 29.4697876 27.53178406 C33.19692963 31.29901917 37.05322365 34.83453134 41.06414795 38.29692078 C44.05169731 40.92523798 46.87178148 43.70951706 49.6875 46.51953125 C50.56946045 47.3964991 50.56946045 47.3964991 51.46923828 48.29118347 C52.69384028 49.51077614 53.9171414 50.73167638 55.13916016 51.95385742 C57.01837639 53.83085469 58.90549623 55.69966889 60.79296875 57.56835938 C61.98746644 58.7599284 63.18149464 59.95196829 64.375 61.14453125 C64.94049561 61.70284134 65.50599121 62.26115143 66.08862305 62.83638 C70 66.77113553 70 66.77113553 70 69 C62.17140095 69.12711385 54.34306953 69.21448391 46.51367188 69.2746582 C43.85171983 69.2969221 41.19112155 69.33382641 38.52929688 69.37719727 C34.69644214 69.43807033 30.86450112 69.46626278 27.03125 69.48828125 C25.84760864 69.51408768 24.66396729 69.5398941 23.44445801 69.56648254 C16.30844238 69.56888755 11.47979095 68.74949236 6 64 C1.53455399 59.29953052 -0.2573162 54.93700923 -0.22705078 48.4753418 C-0.22689972 47.39459885 -0.22674866 46.3138559 -0.22659302 45.20036316 C-0.21627045 44.0449855 -0.20594788 42.88960785 -0.1953125 41.69921875 C-0.1924826 40.50770706 -0.18965271 39.31619537 -0.18673706 38.08857727 C-0.17555433 34.28811544 -0.1504528 30.48789044 -0.125 26.6875 C-0.11496775 24.10872737 -0.10584233 21.52995103 -0.09765625 18.95117188 C-0.0756212 12.63403397 -0.04216232 6.31703391 0 0 Z " fill="#F6F6F6" transform="translate(746,339)"/>
<path d="M0 0 C0.66 0 1.32 0 2 0 C5.05140361 5.88484982 7.61214386 11.81966645 10 18 C11.14472539 20.95876325 12.2907312 23.91702816 13.4375 26.875 C13.74131592 27.6594751 14.04513184 28.4439502 14.3581543 29.25219727 C16.42865112 34.58068988 18.58914405 39.86380446 20.81640625 45.12890625 C22.1292269 48.3134712 23.34780291 51.52680682 24.5625 54.75 C26.17514321 58.99966984 27.89389073 63.05200803 30.10546875 67.0234375 C31.40173097 69.88766755 32.13630415 72.97706451 33 76 C12.54 76 -7.92 76 -29 76 C-25.62536148 64.75120492 -25.62536148 64.75120492 -23.70336914 59.99047852 C-23.06239037 58.39315636 -23.06239037 58.39315636 -22.40846252 56.76356506 C-21.72867592 55.08815895 -21.72867592 55.08815895 -21.03515625 53.37890625 C-20.5605748 52.19836166 -20.08599335 51.01781708 -19.59703064 49.80149841 C-18.34400533 46.68595453 -17.08745626 43.57188629 -15.82879639 40.45861816 C-14.06141801 36.08543007 -12.29931812 31.71011913 -10.53868103 27.33421326 C-9.60472687 25.01375169 -8.66878477 22.69408886 -7.73048401 20.37538147 C-5.01226013 13.63125209 -2.43491553 6.85160741 0 0 Z " fill="#F6F6F6" transform="translate(495,465)"/>
<path d="M0 0 C2.77977969 2.38715544 3.7401153 4.54512978 4.875 8 C6.23494272 11.944872 7.73002519 15.72115808 9.5 19.5 C11.58807861 23.9880958 13.32088615 28.5201625 14.97265625 33.18359375 C17.50146104 40.11617265 20.45919079 46.87039455 23.5625 53.5625 C26.91583331 60.85969073 29.4625307 68.38759209 32 76 C11.54 76 -8.92 76 -30 76 C-28.12693025 69.75643416 -26.28188052 63.85452237 -23.8125 57.87890625 C-23.51324615 57.14403992 -23.21399231 56.40917358 -22.90567017 55.65203857 C-21.94143814 53.28706555 -20.97082509 50.9247732 -20 48.5625 C-19.32949146 46.92164126 -18.65941095 45.28060754 -17.98974609 43.6394043 C-16.64226905 40.33873659 -15.29237347 37.03907494 -13.94042969 33.74023438 C-12.15292903 29.37688356 -10.37512322 25.00965766 -8.6015625 20.640625 C-8.08986316 19.38077011 -7.57814504 18.12092285 -7.06640625 16.86108398 C-6.59074219 15.69005127 -6.11507812 14.51901855 -5.625 13.3125 C-4.7431397 11.14154005 -3.86042372 8.97092734 -2.9765625 6.80078125 C-2.61643066 5.91559814 -2.25629883 5.03041504 -1.88525391 4.1184082 C-1.30311409 2.72535051 -0.67520315 1.35040631 0 0 Z " fill="#F8F8F9" transform="translate(697,465)"/>
<path d="M0 0 C29.04 0 58.08 0 88 0 C85.59067476 12.0466262 81.36021893 20.98487021 71 28 C61.91201461 32.90391291 54.10399207 33.23669225 43.875 33.3125 C42.59367187 33.34150391 41.31234375 33.37050781 39.9921875 33.40039062 C27.41796275 33.4841329 18.30625436 30.18786598 9.3125 21.33984375 C3.18414069 14.6139694 1.13857557 9.10860457 0 0 Z " fill="#F3F605" transform="translate(453,558)"/>
<path d="M0 0 C28.71 0 57.42 0 87 0 C84.69098316 12.69959261 80.63702796 20.59347683 70 28 C61.06425907 32.98456297 52.35720651 33.22732725 42.3125 33.3125 C40.63124023 33.35600586 40.63124023 33.35600586 38.91601562 33.40039062 C26.53795983 33.4937828 17.2760689 29.87090497 8.31640625 21.41015625 C2.45203372 15.19479884 0 8.47741246 0 0 Z " fill="#F6F906" transform="translate(655,558)"/>
<path d="M0 0 C3.27155869 2.36665948 4.70646942 3.89926032 5.75 7.8125 C4.59237627 12.73240087 1.44464105 15.42848451 -2 19 C-3.46207389 20.64251132 -4.92027782 22.28847397 -6.375 23.9375 C-10.08243221 28.0547674 -13.94682743 31.96997464 -17.890625 35.859375 C-19.80811486 37.80527212 -21.60200215 39.79805966 -23.375 41.875 C-26.70381743 45.76120081 -30.30885399 49.33840417 -33.94824219 52.92871094 C-36.61830281 55.57672013 -39.17887981 58.26929689 -41.625 61.125 C-42.16640625 61.74632812 -42.7078125 62.36765625 -43.265625 63.0078125 C-44.55834614 64.4926949 -45.8374606 65.98944419 -47.109375 67.4921875 C-53.51710412 74.58488077 -53.51710412 74.58488077 -58.5625 75.0625 C-64.39279609 74.43493341 -67.32574091 70.15576481 -71 66 C-72.16658899 64.93496675 -73.3545622 63.89289586 -74.5625 62.875 C-78.75552221 59.26177445 -82.81861628 55.51496167 -86.875 51.75 C-87.54217041 51.13495605 -88.20934082 50.51991211 -88.89672852 49.88623047 C-89.52635498 49.29986816 -90.15598145 48.71350586 -90.8046875 48.109375 C-91.37171387 47.58311523 -91.93874023 47.05685547 -92.52294922 46.51464844 C-95.05041681 43.92284531 -95.96976461 42.23324447 -96.4375 38.625 C-96 35 -96 35 -93.9375 32 C-91 30 -91 30 -87.75 29.9921875 C-82.88510405 31.29962829 -80.5391881 33.60998392 -77.0625 37.125 C-75.83786402 38.31184258 -74.61260756 39.49804527 -73.38671875 40.68359375 C-72.51345947 41.54186768 -72.51345947 41.54186768 -71.62255859 42.41748047 C-69.59032314 44.39956747 -67.50209985 46.30783015 -65.375 48.1875 C-64.80523437 48.69667969 -64.23546875 49.20585938 -63.6484375 49.73046875 C-61.86004816 51.10778281 -60.04624767 52.05729638 -58 53 C-54.17219307 49.26167427 -50.39028288 45.52868805 -46.9375 41.4375 C-43.33883917 37.24044753 -39.42540818 33.38737128 -35.5 29.5 C-29.79557178 23.88178523 -29.79557178 23.88178523 -24.4375 17.9375 C-21.07372532 14.01455238 -17.56886226 10.2361309 -14 6.5 C-13.41790771 5.86312256 -12.83581543 5.22624512 -12.23608398 4.57006836 C-8.29823965 0.51261014 -5.91117538 -0.98163923 0 0 Z " fill="#070700" transform="translate(452,855)"/>
<path d="M0 0 C0.33 0 0.66 0 1 0 C1.33 6.6 1.66 13.2 2 20 C2.33 20 2.66 20 3 20 C2.98839844 20.61488281 2.97679687 21.22976563 2.96484375 21.86328125 C2.95582031 22.67152344 2.94679688 23.47976563 2.9375 24.3125 C2.92589844 25.11300781 2.91429687 25.91351563 2.90234375 26.73828125 C2.90342145 29.16861334 2.90342145 29.16861334 4 32 C3.84677277 32.57120071 3.69354553 33.14240143 3.53567505 33.73091125 C2.76428282 36.99848444 3.16443078 39.96496919 3.42919922 43.30541992 C4.00368596 51.24835202 4.14541215 59.1484515 4.1328125 67.11328125 C4.13349001 68.5022127 4.13446369 69.89114402 4.13571167 71.28007507 C4.13716918 74.16483713 4.13509888 77.04956782 4.13037109 79.93432617 C4.12469037 83.57141173 4.1280293 87.2084237 4.13383865 90.84550667 C4.1703344 118.22086963 4.1703344 118.22086963 3.26150513 130.73347473 C2.89984456 134.48448083 2.89984456 134.48448083 4 138 C4.09565595 139.71532435 4.127954 141.43435493 4.12939453 143.15234375 C4.13254669 144.22685791 4.13569885 145.30137207 4.13894653 146.40844727 C4.1369223 147.57303467 4.13489807 148.73762207 4.1328125 149.9375 C4.13376923 151.12851318 4.13472595 152.31952637 4.13571167 153.54663086 C4.13639315 156.06852267 4.1345411 158.59041623 4.13037109 161.11230469 C4.12502243 164.98376384 4.13031721 168.85510698 4.13671875 172.7265625 C4.13605796 175.17187526 4.13477679 177.61718794 4.1328125 180.0625 C4.13584885 181.8093811 4.13584885 181.8093811 4.13894653 183.59155273 C4.13579437 184.66606689 4.13264221 185.74058105 4.12939453 186.84765625 C4.12859894 187.79648682 4.12780334 188.74531738 4.12698364 189.72290039 C4 192 4 192 3 194 C3.09452874 197.11334985 3.24837994 200.20455433 3.4375 203.3125 C3.94205815 212.77336579 4.11614749 222.21354159 4.125 231.6875 C4.12943115 232.95827393 4.1338623 234.22904785 4.13842773 235.53833008 C4.13657471 236.72579834 4.13472168 237.9132666 4.1328125 239.13671875 C4.13168457 240.19592529 4.13055664 241.25513184 4.12939453 242.34643555 C4 245 4 245 3 248 C3.17764434 251.62539464 3.44865229 255.22533125 3.77148438 258.83984375 C4.21193193 264.68210211 4.21193193 264.68210211 2 268 C1.68575876 271.26491634 1.68575876 271.26491634 1.7215271 275.08036804 C1.7157347 275.80572008 1.7099423 276.53107213 1.70397437 277.27840453 C1.6869342 279.71518874 1.68409445 282.15178402 1.68115234 284.58862305 C1.67185693 286.33289049 1.66168884 288.07715347 1.65071106 289.82141113 C1.62335336 294.56280832 1.60824459 299.30417571 1.59528303 304.04563117 C1.57967769 308.99845798 1.55287923 313.95122369 1.5272522 318.90400696 C1.48041833 328.28557386 1.44369655 337.66715219 1.41057932 347.04877645 C1.37239046 357.72824522 1.32297185 368.40765271 1.27259517 379.08706987 C1.16920679 401.05800135 1.07996888 423.02897162 1 445 C0.67 445 0.34 445 0 445 C0 298.15 0 151.3 0 0 Z " fill="#D6D5D6" transform="translate(398,349)"/>
<path d="M0 0 C3.17363907 1.05787969 5.99386121 2.46829946 8.8125 4.25 C9.41707031 4.62640625 10.02164063 5.0028125 10.64453125 5.390625 C12.73902949 7.8774644 12.27036456 9.83259736 12 13 C10.73413086 15.54199219 10.73413086 15.54199219 8.96484375 18.046875 C8.31966797 18.975 7.67449219 19.903125 7.00976562 20.859375 C6.32591797 21.81328125 5.64207031 22.7671875 4.9375 23.75 C3.95233398 25.15765625 3.95233398 25.15765625 2.94726562 26.59375 C1.63007257 28.47285891 0.30246429 30.3447117 -1.03564453 32.20898438 C-2.35852425 34.08857187 -3.64049615 35.99754576 -4.88232422 37.93164062 C-5.47674316 38.84623047 -6.07116211 39.76082031 -6.68359375 40.703125 C-7.46367798 41.94304199 -7.46367798 41.94304199 -8.25952148 43.20800781 C-10 45 -10 45 -12.54003906 45.36425781 C-15.83438322 44.87644901 -17.65835144 43.48176426 -20.3125 41.5 C-21.19550781 40.8503125 -22.07851563 40.200625 -22.98828125 39.53125 C-23.65214844 39.0259375 -24.31601562 38.520625 -25 38 C-23.63611559 34.25099755 -21.93011758 31.16929478 -19.6875 27.875 C-18.63755859 26.328125 -18.63755859 26.328125 -17.56640625 24.75 C-16.96916748 23.87794922 -16.96916748 23.87794922 -16.35986328 22.98828125 C-14.78400551 20.68419046 -13.21831963 18.37331769 -11.65234375 16.0625 C-10.47696781 14.3330578 -9.30118622 12.60389123 -8.125 10.875 C-7.55354248 10.03308105 -6.98208496 9.19116211 -6.39331055 8.32373047 C-5.85359619 7.53369629 -5.31388184 6.74366211 -4.7578125 5.9296875 C-4.2745752 5.22054199 -3.79133789 4.51139648 -3.29345703 3.78076172 C-2 2 -2 2 0 0 Z " fill="#F6F6F6" transform="translate(868,784)"/>
<path d="M0 0 C3.6972587 1.24799166 6.25499357 3.20692864 8.9375 6.0625 C11.05330394 11.9120756 11.00993339 17.77814654 8.4375 23.4375 C4.52305569 27.55268505 0.79571116 30.16304005 -5 30.5 C-9.36532767 30.229282 -12.73857727 28.93940884 -16 26 C-19.78476614 20.95364514 -20.79815857 16.18572891 -20 10 C-15.31843093 0.98364475 -9.81316634 -1.39183878 0 0 Z " fill="#F7F7F8" transform="translate(602,400)"/>
<path d="M0 0 C0.33 0 0.66 0 1 0 C1 148.83 1 297.66 1 451 C-1.31 451.66 -3.62 452.32 -6 453 C-4.69593116 450.98079663 -3.36176581 448.98075027 -2 447 C-1.67 447 -1.34 447 -1 447 C-0.67 299.49 -0.34 151.98 0 0 Z " fill="#DDDDDD" transform="translate(380,347)"/>
<path d="M0 0 C1.14703455 -0.00199105 2.29406909 -0.0039821 3.47586226 -0.00603348 C4.73655099 -0.00312064 5.99723972 -0.0002078 7.29613113 0.00279331 C8.64839328 0.00235731 10.00065534 0.00148188 11.35291696 0.00020415 C15.07220497 -0.0020352 18.79146427 0.00197285 22.51074862 0.00698221 C26.52025906 0.01129452 30.52976784 0.00983973 34.53927994 0.00907993 C41.48716237 0.0085552 48.43503542 0.01169677 55.3829155 0.01731777 C65.42842443 0.02543954 75.47392882 0.02804869 85.51944068 0.02930576 C101.81701601 0.03149521 118.11458635 0.03815242 134.41215897 0.04760838 C150.24516652 0.05678525 166.07817272 0.06386474 181.9111824 0.06811619 C182.88687906 0.06837891 183.86257572 0.06864164 184.86783895 0.06891232 C189.7625477 0.07021734 194.65725647 0.07148105 199.55196524 0.07272422 C240.1682898 0.08309351 280.78460886 0.10070894 321.4009285 0.12304783 C321.4009285 0.45304783 321.4009285 0.78304783 321.4009285 1.12304783 C214.4809285 1.12304783 107.5609285 1.12304783 -2.5990715 1.12304783 C-2.9290715 2.11304783 -3.2590715 3.10304783 -3.5990715 4.12304783 C-5.9090715 3.79304783 -8.2190715 3.46304783 -10.5990715 3.12304783 C-9.5990715 1.12304783 -9.5990715 1.12304783 -7.88651347 0.50573832 C-5.21964685 0.05956984 -2.70534474 -0.00103574 0 0 Z " fill="#656565" transform="translate(420.59907150268555,311.8769521713257)"/>
<path d="M0 0 C0.84462949 -0.0034177 1.68925897 -0.0068354 2.55948329 -0.01035666 C5.39422674 -0.01695371 8.22802666 0.00507046 11.06268311 0.0269165 C13.09280373 0.02804459 15.12292598 0.02741189 17.15304565 0.02514648 C22.66930421 0.02399689 28.1852162 0.04754613 33.70139408 0.07544231 C39.46428238 0.10041496 45.22717825 0.1027947 50.9901123 0.10754395 C61.905257 0.11998588 72.82024181 0.15282405 83.73531604 0.1929419 C96.16078467 0.23762167 108.58626086 0.25963712 121.0117898 0.27972364 C146.57409034 0.32155554 172.13624886 0.39193133 197.69842529 0.48101807 C197.69842529 0.81101807 197.69842529 1.14101807 197.69842529 1.48101807 C196.66621227 1.48432821 195.63399925 1.48763836 194.57050705 1.49104881 C169.47503455 1.57197916 144.37962358 1.66427504 119.28423691 1.76854515 C107.14838679 1.81870484 95.01254355 1.86514736 82.87664795 1.90289307 C72.30119605 1.93579477 61.72579695 1.97561587 51.15040326 2.02380812 C45.54884642 2.04909122 39.94732469 2.07086717 34.34572601 2.08436203 C29.0762706 2.09716592 23.80693545 2.11920228 18.53754616 2.14840126 C16.60094564 2.15749013 14.66432575 2.16317031 12.727705 2.1652317 C10.08839272 2.16854499 7.44942337 2.18399707 4.81018066 2.20254517 C3.6545368 2.19964306 3.6545368 2.19964306 2.4755466 2.19668233 C-1.30637749 2.23655362 -4.06819253 2.45890181 -7.30157471 4.48101807 C-8.62580341 4.84885937 -9.95771383 5.19304788 -11.30157471 5.48101807 C-11.30157471 7.79101807 -11.30157471 10.10101807 -11.30157471 12.48101807 C-11.63157471 12.48101807 -11.96157471 12.48101807 -12.30157471 12.48101807 C-12.78945994 5.16273963 -12.78945994 5.16273963 -10.79600906 2.37729263 C-7.32123722 -0.26423668 -4.19042113 -0.06181177 0 0 Z " fill="#292929" transform="translate(471.30157470703125,728.5189819335938)"/>
<path d="M0 0 C0.33 0 0.66 0 1 0 C1.14586411 3.99768528 1.28806438 7.99548458 1.42724609 11.9934082 C1.49785614 14.0015296 1.57115168 16.00955602 1.64453125 18.01757812 C2.13651158 32.2498662 1.99136958 46.41923631 1.59350586 60.64941406 C1.08770131 78.8204572 0.84240585 96.84598376 2 115 C1.01 115.495 1.01 115.495 0 116 C-0.84329786 111.60817026 -1.12646431 107.4588201 -1.12939453 102.98950195 C-1.13114685 102.31332825 -1.13289917 101.63715454 -1.13470459 100.94049072 C-1.13909722 98.70639455 -1.13618463 96.47237824 -1.1328125 94.23828125 C-1.13348852 92.64918503 -1.13446101 91.06008891 -1.13571167 89.47099304 C-1.13718703 86.12282334 -1.13504752 82.77468027 -1.13037109 79.42651367 C-1.12480663 75.24978972 -1.12795674 71.0731314 -1.13382339 66.89640999 C-1.16016259 44.58088451 -0.77365628 22.30209458 0 0 Z " fill="#F6F6F6" transform="translate(400,619)"/>
<path d="M0 0 C28.71 0 57.42 0 87 0 C86.67 0.66 86.34 1.32 86 2 C84.35 2 82.7 2 81 2 C81 2.33 81 2.66 81 3 C54.93 3 28.86 3 2 3 C2 3.99 2 4.98 2 6 C1.34 6 0.68 6 0 6 C0 4.02 0 2.04 0 0 Z " fill="#D6DA04" transform="translate(655,558)"/>
<path d="M0 0 C0 0.99 0 1.98 0 3 C6.6 3.33 13.2 3.66 20 4 C20 4.33 20 4.66 20 5 C5.81 5 -8.38 5 -23 5 C-23 4.67 -23 4.34 -23 4 C-19.7 3.67 -16.4 3.34 -13 3 C-13.33 2.34 -13.66 1.68 -14 1 C-12.04310963 0.63794536 -10.08442332 0.28558579 -8.125 -0.0625 C-7.03445313 -0.25972656 -5.94390625 -0.45695313 -4.8203125 -0.66015625 C-2 -1 -2 -1 0 0 Z " fill="#E4E4E5" transform="translate(800,903)"/>
<path d="M0 0 C0.66 0.66 1.32 1.32 2 2 C1.72274039 4.3406586 1.37882636 6.67361952 1 9 C0.94394242 11.52543603 0.93733797 14.0523138 0.97265625 16.578125 C0.98528699 17.99999771 0.99764906 19.42187282 1.00976562 20.84375 C1.03468111 23.05802127 1.06283149 25.27216375 1.09594727 27.48632812 C1.12609728 29.64193553 1.1438916 31.79737454 1.16015625 33.953125 C1.17699463 35.23348633 1.19383301 36.51384766 1.21118164 37.83300781 C1 41 1 41 -1 44 C-1.02464513 37.8944529 -1.04283371 31.78893449 -1.05493164 25.68334961 C-1.05997288 23.60456844 -1.06680574 21.52579084 -1.07543945 19.44702148 C-1.08751422 16.46597414 -1.09323024 13.48497351 -1.09765625 10.50390625 C-1.10539818 9.10078941 -1.10539818 9.10078941 -1.11329651 7.66932678 C-1.11337204 6.80850998 -1.11344757 5.94769318 -1.11352539 5.06079102 C-1.115746 4.29912125 -1.11796661 3.53745148 -1.12025452 2.75270081 C-1 1 -1 1 0 0 Z " fill="#F7F7F7" transform="translate(400,738)"/>
<path d="M0 0 C0.33 0 0.66 0 1 0 C1 20.13 1 40.26 1 61 C-1.31 61.66 -3.62 62.32 -6 63 C-4.69593116 60.98079663 -3.36176581 58.98075027 -2 57 C-1.67 57 -1.34 57 -1 57 C-0.67 38.19 -0.34 19.38 0 0 Z " fill="#DADADA" transform="translate(380,737)"/>
<path d="M0 0 C0.66 0.33 1.32 0.66 2 1 C2.495 3.475 2.495 3.475 3 6 C-17.46 6 -37.92 6 -59 6 C-58.67 5.34 -58.34 4.68 -58 4 C-39.19 4 -20.38 4 -1 4 C-0.67 2.68 -0.34 1.36 0 0 Z " fill="#C1C2C2" transform="translate(726,535)"/>
<path d="M0 0 C0.66 0.33 1.32 0.66 2 1 C0.625 3.5 0.625 3.5 -1 6 C-1.66 6 -2.32 6 -3 6 C-2.67 6.66 -2.34 7.32 -2 8 C-1.87586002 10.67911399 -1.81484193 13.32083099 -1.8125 16 C-1.80025391 16.73734375 -1.78800781 17.4746875 -1.77539062 18.234375 C-1.77012605 20.15770058 -1.87796553 22.08054263 -2 24 C-2.66 24.66 -3.32 25.32 -4 26 C-4.11660824 22.60445765 -4.18738372 19.20943321 -4.25 15.8125 C-4.28351563 14.85279297 -4.31703125 13.89308594 -4.3515625 12.90429688 C-4.45112665 5.71078676 -4.45112665 5.71078676 -1.984375 1.82421875 C-1.32953125 1.22222656 -0.6746875 0.62023437 0 0 Z " fill="#FAFAFB" transform="translate(287,294)"/>
<path d="M0 0 C0.66 0.33 1.32 0.66 2 1 C1.67854004 1.6705542 1.35708008 2.3411084 1.02587891 3.03198242 C-0.21632954 6.62587296 -0.32320614 9.68745701 -0.4140625 13.48828125 C-0.43342865 14.19147995 -0.4527948 14.89467865 -0.4727478 15.6191864 C-0.53220183 17.85017019 -0.57879049 20.08120654 -0.625 22.3125 C-0.66321137 23.83140186 -0.70226492 25.35028278 -0.7421875 26.86914062 C-0.83787416 30.57923467 -0.92203072 34.28948651 -1 38 C-1.33 38 -1.66 38 -2 38 C-2.04957858 33.39186151 -2.08580385 28.78387963 -2.10986328 24.17553711 C-2.11989726 22.60910333 -2.13352754 21.04268817 -2.15087891 19.47631836 C-2.17524225 17.21984247 -2.18650916 14.96361506 -2.1953125 12.70703125 C-2.20563507 12.01100296 -2.21595764 11.31497467 -2.22659302 10.59785461 C-2.22750439 6.61415509 -1.7555827 3.58709891 0 0 Z " fill="#191919" transform="translate(267,290)"/>
<path d="M0 0 C-4.18387691 2.09193846 -6.57025036 3.10049801 -11.3125 3 C-17.91729707 2.93595348 -24.42551584 3.40617562 -31 4 C-30.67 3.34 -30.34 2.68 -30 2 C-27.99389648 1.58935547 -27.99389648 1.58935547 -25.37109375 1.3671875 C-24.41783203 1.28339844 -23.46457031 1.19960938 -22.48242188 1.11328125 C-21.47759766 1.03464844 -20.47277344 0.95601563 -19.4375 0.875 C-18.45974609 0.78863281 -17.48199219 0.70226562 -16.47460938 0.61328125 C-10.96258958 0.14810075 -5.53069569 -0.09206866 0 0 Z M-8 3 C-6 4 -6 4 -6 4 Z " fill="#A6A6A6" transform="translate(320,290)"/>
<path d="M0 0 C1.19022894 3.7074023 0.57014048 5.46893291 -1.109375 8.98828125 C-2.42473269 11.95937427 -3.26745909 15.05833848 -4.15625 18.1796875 C-4.4346875 18.78039062 -4.713125 19.38109375 -5 20 C-5.99 20.33 -6.98 20.66 -8 21 C-5.72564796 13.81783567 -2.96415819 6.9241798 0 0 Z " fill="#C9C8C9" transform="translate(950,643)"/>
<path d="M0 0 C1.60488281 0.00483398 1.60488281 0.00483398 3.2421875 0.00976562 C4.35335938 0.01814453 5.46453125 0.02652344 6.609375 0.03515625 C8.29933594 0.04192383 8.29933594 0.04192383 10.0234375 0.04882812 C12.80213717 0.06060228 15.58072909 0.07704785 18.359375 0.09765625 C18.359375 0.42765625 18.359375 0.75765625 18.359375 1.09765625 C11.429375 1.09765625 4.499375 1.09765625 -2.640625 1.09765625 C-2.970625 2.08765625 -3.300625 3.07765625 -3.640625 4.09765625 C-5.950625 3.76765625 -8.260625 3.43765625 -10.640625 3.09765625 C-9.640625 1.09765625 -9.640625 1.09765625 -7.93066406 0.47875977 C-5.24898594 0.0324805 -2.71923027 -0.01446399 0 0 Z " fill="#5C5C5C" transform="translate(420.640625,311.90234375)"/>
<path d="M0 0 C1.1484375 1.609375 1.1484375 1.609375 2 4 C1.1015625 7.015625 1.1015625 7.015625 -0.375 10.25 C-0.85710937 11.32765625 -1.33921875 12.4053125 -1.8359375 13.515625 C-2.22007812 14.33546875 -2.60421875 15.1553125 -3 16 C-3.66 15.67 -4.32 15.34 -5 15 C-3.33333333 10 -1.66666667 5 0 0 Z " fill="#EDEF01" transform="translate(485,913)"/>
<path d="M0 0 C0.66 0.33 1.32 0.66 2 1 C1.01 2.485 1.01 2.485 0 4 C0.020625 4.99 0.04125 5.98 0.0625 7 C0 10 0 10 -1.5 11.875 C-2.2425 12.431875 -2.2425 12.431875 -3 13 C-4.42662219 10.14675563 -4.31033868 8.16545451 -4 5 C-2 2.125 -2 2.125 0 0 Z " fill="#202021" transform="translate(478,433)"/>
<path d="M0 0 C1.485 0.99 1.485 0.99 3 2 C3.52568126 7.34442615 3.41818936 10.62471763 0 15 C-0.33 15 -0.66 15 -1 15 C-0.67 10.05 -0.34 5.1 0 0 Z " fill="#252525" transform="translate(958,532)"/>
<path d="M0 0 C1.04702186 3.7264085 1.07442057 7.13013042 1 11 C0.01 11.33 -0.98 11.66 -2 12 C-2.80563638 14.10584438 -2.80563638 14.10584438 -3.1875 16.5625 C-3.42533203 17.80193359 -3.42533203 17.80193359 -3.66796875 19.06640625 C-3.77753906 19.70449219 -3.88710938 20.34257813 -4 21 C-5.00693162 17.87820592 -4.97289724 16.01030331 -4.00390625 12.890625 C-3.77509766 12.13652344 -3.54628906 11.38242187 -3.31054688 10.60546875 C-3.06369141 9.82816406 -2.81683594 9.05085937 -2.5625 8.25 C-2.31951172 7.45722656 -2.07652344 6.66445313 -1.82617188 5.84765625 C-1.22645805 3.89564654 -0.61441879 1.94743117 0 0 Z " fill="#595959" transform="translate(945,598)"/>
<path d="M0 0 C0.66 0.33 1.32 0.66 2 1 C2.3125 3.6875 2.3125 3.6875 2 7 C-0.5 9.875 -0.5 9.875 -3 12 C-3.66 11.34 -4.32 10.68 -5 10 C-4.01 9.34 -3.02 8.68 -2 8 C-1.59270772 5.67843403 -1.25561323 3.3431213 -1 1 C-0.67 0.67 -0.34 0.34 0 0 Z " fill="#1B1A1B" transform="translate(693,683)"/>
<path d="M0 0 C1.09898702 3.29696105 0.87124444 4.40494903 0.0625 7.6875 C-0.22947266 8.89986328 -0.22947266 8.89986328 -0.52734375 10.13671875 C-0.68332031 10.75160156 -0.83929687 11.36648438 -1 12 C-3 10 -3 10 -3.3125 6.5625 C-3 3 -3 3 -1.5 1.0625 C-1.005 0.711875 -0.51 0.36125 0 0 Z " fill="#212121" transform="translate(546,626)"/>
<path d="M0 0 C2.06913193 2.23466248 3.017098 3.33317783 2.9375 6.4375 C1.81075754 9.51726273 0.16291432 11.55799996 -2 14 C-1.03644647 4.58997722 -1.03644647 4.58997722 0 0 Z " fill="#323333" transform="translate(953,563)"/>
<path d="M0 0 C0.99 0.33 1.98 0.66 3 1 C1.66511872 4.59391114 0.03977277 7.75490696 -2 11 C-2.66 10.67 -3.32 10.34 -4 10 C-2.66666667 6.66666667 -1.33333333 3.33333333 0 0 Z " fill="#E3E400" transform="translate(536,565)"/>
<path d="M0 0 C1.10868317 3.32604951 1.54177532 6.53058454 2 10 C0.35 9.01 -1.3 8.02 -3 7 C-2.25 2.25 -2.25 2.25 0 0 Z " fill="#1F201F" transform="translate(926,658)"/>
<path d="M0 0 C0.99 0.33 1.98 0.66 3 1 C3.3125 3.1875 3.3125 3.1875 3 6 C0.5 8.8125 0.5 8.8125 -2 11 C-1.34 7.37 -0.68 3.74 0 0 Z " fill="#E3E3E4" transform="translate(963,601)"/>
<path d="M0 0 C0.66 0.33 1.32 0.66 2 1 C0.35 2.65 -1.3 4.3 -3 6 C-3.99 5.67 -4.98 5.34 -6 5 C-4.02 3.35 -2.04 1.7 0 0 Z M-8 6 C-7.34 6.33 -6.68 6.66 -6 7 C-7.98 7.99 -7.98 7.99 -10 9 C-9.34 8.01 -8.68 7.02 -8 6 Z " fill="#232324" transform="translate(615,959)"/>
<path d="M0 0 C0.66 0 1.32 0 2 0 C1.74438677 2.3431213 1.40729228 4.67843403 1 7 C0.01 7.495 0.01 7.495 -1 8 C-1.72693904 9.97888961 -2.39816251 11.97954558 -3 14 C-4.37095624 10.30962722 -3.60010967 8.29116165 -2.0625 4.75 C-1.68222656 3.85796875 -1.30195313 2.9659375 -0.91015625 2.046875 C-0.60980469 1.37140625 -0.30945313 0.6959375 0 0 Z " fill="#B6B909" transform="translate(330,864)"/>
<path d="M0 0 C0.66 0 1.32 0 2 0 C1.68289063 0.48984375 1.36578125 0.9796875 1.0390625 1.484375 C-0.41373615 5.001677 -0.46584752 8.49665393 -0.625 12.25 C-0.66367187 12.99507812 -0.70234375 13.74015625 -0.7421875 14.5078125 C-0.83605108 16.3381524 -0.91909718 18.16904143 -1 20 C-1.33 20 -1.66 20 -2 20 C-2.05392397 17.22890693 -2.09363455 14.45886182 -2.125 11.6875 C-2.14175781 10.90181641 -2.15851562 10.11613281 -2.17578125 9.30664062 C-2.18544922 8.1706543 -2.18544922 8.1706543 -2.1953125 7.01171875 C-2.20578613 6.31522217 -2.21625977 5.61872559 -2.22705078 4.90112305 C-2 3 -2 3 0 0 Z " fill="#353535" transform="translate(639,543)"/>
<path d="M0 0 C0.99 0.66 1.98 1.32 3 2 C2.6875 3.9375 2.6875 3.9375 2 6 C1.01 6.33 0.02 6.66 -1 7 C-1.33 8.98 -1.66 10.96 -2 13 C-3.18771723 9.57056481 -2.80226223 7.62215325 -1.5625 4.25 C-1.27503906 3.45078125 -0.98757813 2.6515625 -0.69140625 1.828125 C-0.46324219 1.22484375 -0.23507812 0.6215625 0 0 Z " fill="#3F3F3F" transform="translate(313,860)"/>
<path d="M0 0 C0.99 0.33 1.98 0.66 3 1 C3 4.3 3 7.6 3 11 C2.01 11 1.02 11 0 11 C0 7.37 0 3.74 0 0 Z " fill="#E6E5E6" transform="translate(759,548)"/>
<path d="M0 0 C0.33 0 0.66 0 1 0 C1 2.97 1 5.94 1 9 C-1.31 9.66 -3.62 10.32 -6 11 C-4.69593116 8.98079663 -3.36176581 6.98075027 -2 5 C-1.67 5 -1.34 5 -1 5 C-0.67 3.35 -0.34 1.7 0 0 Z " fill="#D1D2D2" transform="translate(380,789)"/>
<path d="M0 0 C1.32 0.33 2.64 0.66 4 1 C3.67 3.64 3.34 6.28 3 9 C2.01 8.67 1.02 8.34 0 8 C0 5.36 0 2.72 0 0 Z " fill="#DEDF03" transform="translate(737,560)"/>
<path d="M0 0 C0.66 0.99 1.32 1.98 2 3 C-0.84936103 6.00765886 -3.23511958 8.27845212 -7 10 C-6.57847656 9.44570313 -6.15695312 8.89140625 -5.72265625 8.3203125 C-5.17480469 7.59585938 -4.62695312 6.87140625 -4.0625 6.125 C-3.51722656 5.40570312 -2.97195313 4.68640625 -2.41015625 3.9453125 C-0.96035376 2.05642921 -0.96035376 2.05642921 0 0 Z " fill="#222301" transform="translate(737,572)"/>
<path d="M0 0 C1.5 1.375 1.5 1.375 3 3 C3 3.66 3 4.32 3 5 C2.01 5 1.02 5 0 5 C-0.33 5.99 -0.66 6.98 -1 8 C-1.66 8 -2.32 8 -3 8 C-1.125 2.25 -1.125 2.25 0 0 Z " fill="#D1D1D1" transform="translate(697,465)"/>
<path d="M0 0 C1.670625 0.061875 1.670625 0.061875 3.375 0.125 C0.73595629 1.53877341 -1.69620629 2.49740135 -4.625 3.125 C-4.625 5.435 -4.625 7.745 -4.625 10.125 C-4.955 10.125 -5.285 10.125 -5.625 10.125 C-5.8203125 4.0703125 -5.8203125 4.0703125 -5.625 2.125 C-3.625 0.125 -3.625 0.125 0 0 Z " fill="#1D1E1E" transform="translate(464.625,730.875)"/>
<path d="M0 0 C4.875 1.75 4.875 1.75 6 4 C3.125 4.125 3.125 4.125 0 4 C-0.66 3.34 -1.32 2.68 -2 2 C-1.34 1.34 -0.68 0.68 0 0 Z " fill="#121212" transform="translate(720,887)"/>
<path d="M0 0 C0.80824219 0.10183594 1.61648438 0.20367188 2.44921875 0.30859375 C3.06410156 0.39238281 3.67898438 0.47617187 4.3125 0.5625 C4.3125 0.8925 4.3125 1.2225 4.3125 1.5625 C0.6825 1.8925 -2.9475 2.2225 -6.6875 2.5625 C-7.0175 1.9025 -7.3475 1.2425 -7.6875 0.5625 C-4.59271121 -0.46909626 -3.16118607 -0.41232862 0 0 Z " fill="#F5F5F4" transform="translate(788.6875,904.4375)"/>
<path d="M0 0 C1.98 0.99 1.98 0.99 4 2 C4 2.99 4 3.98 4 5 C3.01 5.66 2.02 6.32 1 7 C0.67 4.69 0.34 2.38 0 0 Z " fill="#E3E4E4" transform="translate(747,340)"/>
<path d="M0 0 C0.66 0.33 1.32 0.66 2 1 C0.625 3.5 0.625 3.5 -1 6 C-1.66 6 -2.32 6 -3 6 C-3.33 6.99 -3.66 7.98 -4 9 C-3.38461538 3.46153846 -3.38461538 3.46153846 -1.4375 1.125 C-0.963125 0.75375 -0.48875 0.3825 0 0 Z " fill="#D8D7D9" transform="translate(287,294)"/>
<path d="M0 0 C0.66 0.33 1.32 0.66 2 1 C0.25 3.9375 0.25 3.9375 -2 7 C-3.32 7.33 -4.64 7.66 -6 8 C-4.02 5.36 -2.04 2.72 0 0 Z " fill="#1A1A1B" transform="translate(333,827)"/>
<path d="M0 0 C2.5 1.3125 2.5 1.3125 5 3 C5 3.99 5 4.98 5 6 C1.535 4.02 1.535 4.02 -2 2 C-1.34 1.34 -0.68 0.68 0 0 Z " fill="#E1E003" transform="translate(835,683)"/>
<path d="M0 0 C0.99 0 1.98 0 3 0 C2.67 1.65 2.34 3.3 2 5 C0.35 4.67 -1.3 4.34 -3 4 C-2.34 3.67 -1.68 3.34 -1 3 C-0.67 2.01 -0.34 1.02 0 0 Z " fill="#222222" transform="translate(582,978)"/>
<path d="M0 0 C3.24208567 0.35049575 4.61527704 0.56221181 6.8125 3.0625 C7.204375 3.701875 7.59625 4.34125 8 5 C5 5 5 5 2.3125 2.5 C1.549375 1.675 0.78625 0.85 0 0 Z " fill="#DDDDDC" transform="translate(931,885)"/>
<path d="M0 0 C0.66 0.99 1.32 1.98 2 3 C1.34 3 0.68 3 0 3 C-0.33 4.32 -0.66 5.64 -1 7 C-1.99 6.67 -2.98 6.34 -4 6 C-2.68 4.02 -1.36 2.04 0 0 Z " fill="#DBDBDC" transform="translate(762,739)"/>
<path d="M0 0 C1.5625 1.1875 1.5625 1.1875 3 3 C2.6875 5.6875 2.6875 5.6875 2 8 C0.4375 6.25 0.4375 6.25 -1 4 C-0.6875 1.75 -0.6875 1.75 0 0 Z " fill="#E6E6E7" transform="translate(730,495)"/>
<path d="M0 0 C2.2109885 0.42793326 3.98119242 0.99059621 6 2 C5.67 2.99 5.34 3.98 5 5 C4.34 5 3.68 5 3 5 C2.67 4.34 2.34 3.68 2 3 C1.01 2.34 0.02 1.68 -1 1 C-0.67 0.67 -0.34 0.34 0 0 Z " fill="#EEEEEE" transform="translate(956,294)"/>
</svg>
